<svg width="504" height="290" viewBox="0 0 504 290" fill="none" xmlns="http://www.w3.org/2000/svg">
<g clip-path="url(#clip0_207_1336)">
<path d="M109.203 257.42C123.679 257.42 135.414 245.668 135.414 231.172C135.414 216.675 123.679 204.923 109.203 204.923C94.727 204.923 82.992 216.675 82.992 231.172C82.992 245.668 94.727 257.42 109.203 257.42Z" fill="#F2F2F2"/>
<path d="M113.465 253.579C127.941 253.579 139.676 241.827 139.676 227.33C139.676 212.834 127.941 201.082 113.465 201.082C98.9889 201.082 87.2539 212.834 87.2539 227.33C87.2539 241.827 98.9889 253.579 113.465 253.579Z" fill="#6963FF"/>
<path d="M458.872 198.287H134.574V199.173H458.872V198.287Z" fill="#3F3D56"/>
<path d="M302.528 8.264H187.422V5.88818H135.229V8.264H19.6482C18.6258 8.264 17.6133 8.46567 16.6686 8.85752C15.724 9.24936 14.8657 9.82369 14.1427 10.5477C13.4197 11.2718 12.8461 12.1313 12.4548 13.0773C12.0636 14.0233 11.8622 15.0372 11.8622 16.0611V173.901C11.8622 175.969 12.6825 177.952 14.1427 179.415C15.6028 180.877 17.5832 181.698 19.6482 181.698H302.528C304.593 181.698 306.574 180.877 308.034 179.415C309.494 177.952 310.314 175.969 310.314 173.901V16.0611C310.314 15.0372 310.113 14.0233 309.722 13.0773C309.331 12.1313 308.757 11.2718 308.034 10.5477C307.311 9.82369 306.453 9.24936 305.508 8.85752C304.563 8.46567 303.551 8.264 302.528 8.264Z" fill="#3F3D56"/>
<path d="M299.876 22.0437H22.3009V178.847H299.876V22.0437Z" fill="#6963FF"/>
<path d="M160.851 17.7673C162.423 17.7673 163.698 16.4908 163.698 14.9163C163.698 13.3417 162.423 12.0653 160.851 12.0653C159.279 12.0653 158.004 13.3417 158.004 14.9163C158.004 16.4908 159.279 17.7673 160.851 17.7673Z" fill="#6963FF"/>
<path opacity="0.1" d="M220.494 178.847H22.301V22.0438L220.494 178.847Z" fill="black"/>
<path d="M65.733 167.114C80.4687 167.114 92.4144 155.151 92.4144 140.394C92.4144 125.638 80.4687 113.675 65.733 113.675C50.9973 113.675 39.0517 125.638 39.0517 140.394C39.0517 155.151 50.9973 167.114 65.733 167.114Z" fill="#F2F2F2"/>
<path d="M251.545 106.609H225.617V112.035H251.545V106.609Z" fill="#3F3D56"/>
<path d="M282.892 64.3668H194.27V66.6921H282.892V64.3668Z" fill="#3F3D56"/>
<path d="M282.892 71.7302H194.27V74.0555H282.892V71.7302Z" fill="#3F3D56"/>
<path d="M282.892 79.0935H194.27V81.4188H282.892V79.0935Z" fill="#3F3D56"/>
<path d="M282.892 86.4569H194.27V88.7822H282.892V86.4569Z" fill="#3F3D56"/>
<path d="M282.892 93.8202H194.27V96.1455H282.892V93.8202Z" fill="#3F3D56"/>
<path d="M282.892 25.225H272.056V36.0762H282.892V25.225Z" fill="#F2F2F2"/>
<path d="M287.923 41.1143H274.765V27.9377H287.923V41.1143ZM275.337 40.5414H287.351V28.5107H275.337V40.5414Z" fill="#3F3D56"/>
<path d="M318.108 175.996H291.019V174.042C291.019 173.991 291.009 173.941 290.989 173.894C290.97 173.847 290.941 173.804 290.905 173.768C290.869 173.732 290.827 173.703 290.78 173.684C290.733 173.664 290.682 173.654 290.632 173.654H281.344C281.293 173.654 281.243 173.664 281.196 173.684C281.149 173.703 281.106 173.732 281.07 173.768C281.034 173.804 281.006 173.847 280.986 173.894C280.967 173.941 280.957 173.991 280.957 174.042V175.996H275.152V174.042C275.152 173.991 275.142 173.941 275.122 173.894C275.103 173.847 275.075 173.804 275.039 173.768C275.003 173.732 274.96 173.703 274.913 173.684C274.866 173.664 274.816 173.654 274.765 173.654H265.477C265.426 173.654 265.376 173.664 265.329 173.684C265.282 173.703 265.239 173.732 265.203 173.768C265.168 173.804 265.139 173.847 265.12 173.894C265.1 173.941 265.09 173.991 265.09 174.042V175.996H259.285V174.042C259.285 173.991 259.275 173.941 259.256 173.894C259.236 173.847 259.208 173.804 259.172 173.768C259.136 173.732 259.093 173.703 259.046 173.684C258.999 173.664 258.949 173.654 258.898 173.654H249.61C249.56 173.654 249.509 173.664 249.462 173.684C249.415 173.703 249.373 173.732 249.337 173.768C249.301 173.804 249.272 173.847 249.253 173.894C249.233 173.941 249.223 173.991 249.223 174.042V175.996H243.419V174.042C243.419 173.991 243.409 173.941 243.389 173.894C243.37 173.847 243.341 173.804 243.305 173.768C243.269 173.732 243.227 173.703 243.18 173.684C243.133 173.664 243.082 173.654 243.032 173.654H233.744C233.693 173.654 233.643 173.664 233.596 173.684C233.549 173.703 233.506 173.732 233.47 173.768C233.434 173.804 233.406 173.847 233.386 173.894C233.367 173.941 233.357 173.991 233.357 174.042V175.996H227.552V174.042C227.552 173.991 227.542 173.941 227.522 173.894C227.503 173.847 227.474 173.804 227.438 173.768C227.403 173.732 227.36 173.703 227.313 173.684C227.266 173.664 227.216 173.654 227.165 173.654H217.877C217.826 173.654 217.776 173.664 217.729 173.684C217.682 173.703 217.639 173.732 217.603 173.768C217.567 173.804 217.539 173.847 217.519 173.894C217.5 173.941 217.49 173.991 217.49 174.042V175.996H211.685V174.042C211.685 173.991 211.675 173.941 211.656 173.894C211.636 173.847 211.608 173.804 211.572 173.768C211.536 173.732 211.493 173.703 211.446 173.684C211.399 173.664 211.349 173.654 211.298 173.654H202.01C201.959 173.654 201.909 173.664 201.862 173.684C201.815 173.703 201.773 173.732 201.737 173.768C201.701 173.804 201.672 173.847 201.653 173.894C201.633 173.941 201.623 173.991 201.623 174.042V175.996H195.818V174.042C195.818 173.991 195.808 173.941 195.789 173.894C195.769 173.847 195.741 173.804 195.705 173.768C195.669 173.732 195.626 173.703 195.579 173.684C195.533 173.664 195.482 173.654 195.431 173.654H122.677C122.626 173.654 122.576 173.664 122.529 173.684C122.482 173.703 122.439 173.732 122.403 173.768C122.367 173.804 122.339 173.847 122.319 173.894C122.3 173.941 122.29 173.991 122.29 174.042V175.996H116.485V174.042C116.485 173.991 116.475 173.941 116.455 173.894C116.436 173.847 116.407 173.804 116.372 173.768C116.336 173.732 116.293 173.703 116.246 173.684C116.199 173.664 116.149 173.654 116.098 173.654H106.81C106.759 173.654 106.709 173.664 106.662 173.684C106.615 173.703 106.572 173.732 106.536 173.768C106.5 173.804 106.472 173.847 106.452 173.894C106.433 173.941 106.423 173.991 106.423 174.042V175.996H100.618V174.042C100.618 173.991 100.608 173.941 100.589 173.894C100.569 173.847 100.541 173.804 100.505 173.768C100.469 173.732 100.426 173.703 100.379 173.684C100.332 173.664 100.282 173.654 100.231 173.654H90.9433C90.8925 173.654 90.8422 173.664 90.7952 173.684C90.7483 173.703 90.7056 173.732 90.6697 173.768C90.6337 173.804 90.6052 173.847 90.5858 173.894C90.5663 173.941 90.5563 173.991 90.5563 174.042V175.996H84.7514V174.042C84.7514 173.991 84.7414 173.941 84.722 173.894C84.7025 173.847 84.674 173.804 84.6381 173.768C84.6022 173.732 84.5595 173.703 84.5125 173.684C84.4656 173.664 84.4153 173.654 84.3644 173.654H75.0766C75.0258 173.654 74.9755 173.664 74.9285 173.684C74.8816 173.703 74.8389 173.732 74.803 173.768C74.767 173.804 74.7385 173.847 74.7191 173.894C74.6996 173.941 74.6896 173.991 74.6896 174.042V175.996H68.8848V174.042C68.8848 173.991 68.8747 173.941 68.8553 173.894C68.8358 173.847 68.8073 173.804 68.7714 173.768C68.7355 173.732 68.6928 173.703 68.6459 173.684C68.5989 173.664 68.5486 173.654 68.4978 173.654H59.2099C59.1591 173.654 59.1088 173.664 59.0618 173.684C59.0149 173.703 58.9722 173.732 58.9363 173.768C58.9003 173.804 58.8718 173.847 58.8524 173.894C58.8329 173.941 58.8229 173.991 58.8229 174.042V175.996H53.018V174.042C53.018 173.991 53.008 173.941 52.9886 173.894C52.9691 173.847 52.9406 173.804 52.9047 173.768C52.8687 173.732 52.8261 173.703 52.7791 173.684C52.7322 173.664 52.6819 173.654 52.631 173.654H43.3432C43.2924 173.654 43.2421 173.664 43.1951 173.684C43.1482 173.703 43.1055 173.732 43.0696 173.768C43.0336 173.804 43.0051 173.847 42.9857 173.894C42.9662 173.941 42.9562 173.991 42.9562 174.042V175.996H37.1513V174.042C37.1513 173.991 37.1413 173.941 37.1219 173.894C37.1024 173.847 37.0739 173.804 37.038 173.768C37.002 173.732 36.9594 173.703 36.9124 173.684C36.8655 173.664 36.8151 173.654 36.7643 173.654H27.4765C27.4257 173.654 27.3754 173.664 27.3284 173.684C27.2814 173.703 27.2388 173.732 27.2028 173.768C27.1669 173.804 27.1384 173.847 27.119 173.894C27.0995 173.941 27.0895 173.991 27.0895 174.042V175.996H9.28783C6.82455 175.996 4.46215 176.976 2.72035 178.721C0.97854 180.465 2.34677e-06 182.831 0 185.297V189.503C7.04032e-06 191.97 0.978547 194.336 2.72035 196.08C4.46216 197.824 6.82455 198.804 9.28783 198.804H318.108C320.571 198.804 322.934 197.824 324.676 196.08C326.417 194.336 327.396 191.97 327.396 189.503V185.297C327.396 182.831 326.417 180.465 324.676 178.721C322.934 176.976 320.571 175.996 318.108 175.996Z" fill="#3F3D56"/>
<path d="M72.1914 157.083C65.5411 157.083 59.0402 155.108 53.5107 151.408C47.9812 147.708 43.6714 142.449 41.1265 136.296C38.5815 130.144 37.9156 123.373 39.2131 116.841C40.5105 110.31 43.7129 104.31 48.4153 99.6006C53.1178 94.8914 59.1091 91.6844 65.6316 90.3852C72.1541 89.0859 78.9149 89.7527 85.0589 92.3013C91.203 94.8499 96.4544 99.1658 100.149 104.703C103.844 110.241 105.816 116.751 105.816 123.411C105.806 132.338 102.26 140.897 95.9564 147.209C89.6527 153.522 81.1061 157.073 72.1914 157.083ZM72.1914 90.6243C65.7161 90.6243 59.3863 92.5472 54.0023 96.1498C48.6183 99.7524 44.422 104.873 41.944 110.864C39.466 116.855 38.8176 123.447 40.0809 129.807C41.3442 136.167 44.4623 142.009 49.041 146.594C53.6197 151.179 59.4534 154.302 65.8042 155.567C72.1551 156.832 78.7379 156.183 84.7203 153.701C90.7027 151.22 95.8159 147.017 99.4134 141.626C103.011 136.234 104.931 129.895 104.931 123.411C104.921 114.718 101.469 106.384 95.331 100.238C89.1932 94.0915 80.8715 90.6341 72.1914 90.6243Z" fill="#3F3D56"/>
<path d="M372.157 14.4185H259.338V15.3046H372.157V14.4185Z" fill="#3F3D56"/>
<path d="M504 248.353H179.701V249.239H504V248.353Z" fill="#3F3D56"/>
<path d="M198.062 289.114H85.2431V290H198.062V289.114Z" fill="#3F3D56"/>
<path d="M220.771 243.681H208.383V256.087H220.771V243.681Z" fill="#6963FF"/>
<path d="M228.292 248.998H213.25V233.934H228.292V248.998ZM213.904 248.343H227.638V234.589H213.904V248.343Z" fill="#3F3D56"/>
<path d="M364.56 9.74731H352.172V22.1529H364.56V9.74731Z" fill="#6963FF"/>
<path d="M372.081 15.0639H357.039V0H372.081V15.0639ZM357.693 14.409H371.427V0.654955H357.693V14.409Z" fill="#3F3D56"/>
<path d="M489.324 243.681H476.936V256.087H489.324V243.681Z" fill="#6963FF"/>
<path d="M496.846 248.998H481.803V233.934H496.846V248.998ZM482.457 248.343H496.192V234.589H482.457V248.343Z" fill="#3F3D56"/>
<path d="M467.721 102.771H466.669V73.9004C466.669 71.7061 466.237 69.5333 465.399 67.506C464.56 65.4787 463.331 63.6367 461.782 62.0851C460.232 60.5335 458.393 59.3027 456.369 58.4629C454.344 57.6232 452.174 57.191 449.983 57.191H388.905C386.713 57.191 384.544 57.6232 382.519 58.4629C380.495 59.3027 378.656 60.5335 377.106 62.0851C375.557 63.6367 374.328 65.4787 373.489 67.506C372.651 69.5333 372.219 71.7061 372.219 73.9004V232.285C372.219 234.479 372.651 236.652 373.489 238.679C374.328 240.707 375.557 242.549 377.106 244.1C378.656 245.652 380.495 246.883 382.519 247.723C384.544 248.562 386.713 248.994 388.905 248.994H449.983C452.174 248.994 454.344 248.562 456.369 247.723C458.393 246.883 460.232 245.652 461.782 244.1C463.331 242.549 464.56 240.707 465.399 238.679C466.237 236.652 466.669 234.479 466.669 232.285V123.321H467.721V102.771Z" fill="#3F3D56"/>
<path d="M463.116 74.8825V233.036C463.116 236.346 461.804 239.52 459.467 241.861C457.131 244.201 453.962 245.516 450.657 245.517H389.283C385.978 245.516 382.809 244.201 380.473 241.861C378.136 239.52 376.824 236.346 376.825 233.036V74.8825C376.825 71.5736 378.138 68.4004 380.474 66.0607C382.81 63.721 385.979 62.4064 389.283 62.406H396.729C396.363 63.3061 396.223 64.2827 396.322 65.2496C396.422 66.2166 396.757 67.1443 397.298 67.951C397.84 68.7577 398.571 69.4186 399.428 69.8756C400.285 70.3326 401.24 70.5716 402.211 70.5715H437.203C438.173 70.5716 439.129 70.3326 439.986 69.8756C440.843 69.4187 441.574 68.7577 442.115 67.951C442.657 67.1443 442.992 66.2166 443.091 65.2496C443.19 64.2827 443.051 63.3061 442.684 62.406H450.657C453.961 62.4064 457.13 63.721 459.466 66.0607C461.802 68.4004 463.115 71.5736 463.116 74.8825Z" fill="#6963FF"/>
<path d="M429.111 166.686H410.829V172.112H429.111V166.686Z" fill="#3F3D56"/>
<path d="M451.214 124.444H388.726V126.769H451.214V124.444Z" fill="#3F3D56"/>
<path d="M451.214 131.807H388.726V134.132H451.214V131.807Z" fill="#3F3D56"/>
<path d="M451.214 139.17H388.726V141.496H451.214V139.17Z" fill="#3F3D56"/>
<path d="M451.214 146.534H388.726V148.859H451.214V146.534Z" fill="#3F3D56"/>
<path d="M451.214 153.897H388.726V156.222H451.214V153.897Z" fill="#3F3D56"/>
<path d="M422.153 93.5642H411.317V104.415H422.153V93.5642Z" fill="#F2F2F2"/>
<path d="M415.465 96.2777V109.454H428.623V96.2777H415.465ZM428.052 108.883H416.036V96.8493H428.052V108.883Z" fill="#3F3D56"/>
<path opacity="0.1" d="M463.116 216.147V233.036C463.116 236.346 461.804 239.52 459.467 241.861C457.131 244.201 453.962 245.516 450.657 245.517H389.283C385.978 245.516 382.809 244.201 380.473 241.861C378.136 239.52 376.824 236.346 376.825 233.036V147.876L428.531 188.784L429.416 189.484L439.034 197.091L439.932 197.804L463.116 216.147Z" fill="black"/>
<path d="M414.661 240.392C425.38 240.392 434.069 231.69 434.069 220.956C434.069 210.221 425.38 201.52 414.661 201.52C403.942 201.52 395.253 210.221 395.253 220.956C395.253 231.69 403.942 240.392 414.661 240.392Z" fill="#F2F2F2"/>
<path d="M141.652 290C134.04 290 126.598 287.739 120.268 283.504C113.938 279.268 109.005 273.248 106.091 266.205C103.178 259.162 102.416 251.411 103.901 243.934C105.386 236.457 109.052 229.589 114.435 224.198C119.818 218.807 126.677 215.136 134.143 213.649C141.61 212.161 149.349 212.925 156.382 215.842C163.416 218.76 169.427 223.7 173.657 230.039C177.886 236.378 180.144 243.83 180.144 251.454C180.132 261.674 176.073 271.471 168.857 278.697C161.641 285.924 151.857 289.988 141.652 290ZM141.652 213.794C134.215 213.794 126.944 216.003 120.76 220.141C114.575 224.279 109.755 230.161 106.909 237.042C104.062 243.924 103.318 251.496 104.769 258.801C106.22 266.106 109.801 272.817 115.061 278.084C120.32 283.35 127.021 286.937 134.316 288.39C141.611 289.843 149.172 289.098 156.044 286.247C162.915 283.397 168.789 278.57 172.921 272.377C177.053 266.184 179.259 258.902 179.259 251.454C179.247 241.47 175.282 231.897 168.232 224.837C161.182 217.777 151.623 213.805 141.652 213.794Z" fill="#3F3D56"/>
<path d="M420.382 235.947C415.569 235.947 410.864 234.518 406.863 231.84C402.861 229.163 399.742 225.357 397.9 220.904C396.059 216.451 395.577 211.552 396.516 206.825C397.455 202.098 399.772 197.756 403.175 194.348C406.578 190.94 410.914 188.619 415.634 187.679C420.355 186.739 425.247 187.221 429.694 189.066C434.14 190.91 437.94 194.033 440.614 198.041C443.288 202.048 444.715 206.759 444.715 211.579C444.708 218.039 442.142 224.233 437.58 228.802C433.018 233.37 426.833 235.94 420.382 235.947ZM420.382 188.097C415.744 188.097 411.21 189.474 407.354 192.054C403.498 194.635 400.493 198.302 398.718 202.593C396.943 206.883 396.479 211.605 397.383 216.16C398.288 220.715 400.521 224.899 403.801 228.183C407.08 231.467 411.258 233.704 415.807 234.61C420.356 235.516 425.07 235.051 429.355 233.273C433.64 231.496 437.302 228.486 439.878 224.625C442.455 220.763 443.83 216.223 443.83 211.579C443.823 205.353 441.35 199.385 436.955 194.982C432.559 190.58 426.598 188.104 420.382 188.097Z" fill="#3F3D56"/>
</g>
<defs>
<clipPath id="clip0_207_1336">
<rect width="504" height="290" fill="white"/>
</clipPath>
</defs>
</svg>
