<svg width="107" height="23" viewBox="0 0 107 23" fill="none" xmlns="http://www.w3.org/2000/svg">
<path d="M13.224 4.968L10.632 5.784C10.52 5.128 10.192 4.528 9.648 3.984C9.104 3.44 8.32 3.168 7.296 3.168C6.448 3.168 5.744 3.408 5.184 3.888C4.64 4.368 4.368 4.944 4.368 5.616C4.368 6.784 5.032 7.512 6.36 7.8L8.808 8.304C10.28 8.592 11.416 9.176 12.216 10.056C13.016 10.936 13.416 11.984 13.416 13.2C13.416 14.608 12.872 15.824 11.784 16.848C10.712 17.856 9.248 18.36 7.392 18.36C5.392 18.36 3.832 17.84 2.712 16.8C1.592 15.744 0.96 14.52 0.816 13.128L3.504 12.36C3.6 13.32 3.984 14.128 4.656 14.784C5.328 15.44 6.24 15.768 7.392 15.768C8.384 15.768 9.144 15.552 9.672 15.12C10.216 14.672 10.488 14.104 10.488 13.416C10.488 12.856 10.288 12.376 9.888 11.976C9.488 11.56 8.928 11.272 8.208 11.112L5.808 10.608C4.48 10.336 3.424 9.784 2.64 8.952C1.872 8.12 1.488 7.08 1.488 5.832C1.488 4.408 2.056 3.184 3.192 2.16C4.328 1.136 5.688 0.623999 7.272 0.623999C9.08 0.623999 10.464 1.064 11.424 1.944C12.384 2.808 12.984 3.816 13.224 4.968ZM16.9471 10.872H22.6831C22.6511 10.136 22.3871 9.52 21.8911 9.024C21.4111 8.528 20.7151 8.28 19.8031 8.28C18.9711 8.28 18.2991 8.544 17.7871 9.072C17.2751 9.584 16.9951 10.184 16.9471 10.872ZM22.9951 13.92L25.3471 14.664C25.0111 15.736 24.3791 16.624 23.4511 17.328C22.5391 18.016 21.4111 18.36 20.0671 18.36C18.4031 18.36 16.9871 17.792 15.8191 16.656C14.6671 15.52 14.0911 14 14.0911 12.096C14.0911 10.304 14.6511 8.832 15.7711 7.68C16.9071 6.528 18.2431 5.952 19.7791 5.952C21.5711 5.952 22.9711 6.504 23.9791 7.608C24.9871 8.696 25.4911 10.168 25.4911 12.024C25.4911 12.52 25.4671 12.816 25.4191 12.912H16.8751C16.9071 13.792 17.2271 14.52 17.8351 15.096C18.4591 15.672 19.2031 15.96 20.0671 15.96C21.5711 15.96 22.5471 15.28 22.9951 13.92ZM26.3116 18.648L28.8796 17.976C28.9756 18.712 29.2876 19.312 29.8156 19.776C30.3596 20.256 31.0236 20.496 31.8076 20.496C34.0156 20.496 35.1196 19.328 35.1196 16.992V15.768C34.8476 16.264 34.4156 16.672 33.8236 16.992C33.2316 17.312 32.5356 17.472 31.7356 17.472C30.1676 17.472 28.8716 16.936 27.8476 15.864C26.8396 14.792 26.3356 13.432 26.3356 11.784C26.3356 10.2 26.8396 8.856 27.8476 7.752C28.8556 6.648 30.1516 6.096 31.7356 6.096C33.4476 6.096 34.5996 6.664 35.1916 7.8V6.312H37.8796V16.896C37.8796 18.624 37.3916 20.056 36.4156 21.192C35.4396 22.344 33.9276 22.92 31.8796 22.92C30.3756 22.92 29.1116 22.512 28.0876 21.696C27.0636 20.88 26.4716 19.864 26.3116 18.648ZM32.1916 15.096C33.0876 15.096 33.8076 14.8 34.3516 14.208C34.9116 13.6 35.1916 12.792 35.1916 11.784C35.1916 10.792 34.9116 10 34.3516 9.408C33.7916 8.8 33.0716 8.496 32.1916 8.496C31.2956 8.496 30.5596 8.8 29.9836 9.408C29.4236 10 29.1436 10.792 29.1436 11.784C29.1436 12.792 29.4236 13.6 29.9836 14.208C30.5436 14.8 31.2796 15.096 32.1916 15.096ZM43.0444 18H40.2844V6.312H42.9484V7.8C43.2684 7.224 43.7484 6.776 44.3884 6.456C45.0444 6.136 45.7164 5.976 46.4044 5.976C47.1884 5.976 47.8924 6.152 48.5164 6.504C49.1404 6.856 49.6044 7.368 49.9084 8.04C50.7244 6.664 51.9884 5.976 53.7004 5.976C54.8524 5.976 55.8284 6.352 56.6284 7.104C57.4284 7.856 57.8284 8.96 57.8284 10.416V18H55.1404V10.872C55.1404 10.152 54.9484 9.576 54.5644 9.144C54.1964 8.696 53.6364 8.472 52.8844 8.472C52.1644 8.472 51.5804 8.72 51.1324 9.216C50.6844 9.712 50.4604 10.328 50.4604 11.064V18H47.7244V10.872C47.7244 10.152 47.5324 9.576 47.1484 9.144C46.7804 8.696 46.2204 8.472 45.4684 8.472C44.7324 8.472 44.1404 8.72 43.6924 9.216C43.2604 9.696 43.0444 10.312 43.0444 11.064V18ZM62.1815 10.872H67.9175C67.8855 10.136 67.6215 9.52 67.1255 9.024C66.6455 8.528 65.9495 8.28 65.0375 8.28C64.2055 8.28 63.5335 8.544 63.0215 9.072C62.5095 9.584 62.2295 10.184 62.1815 10.872ZM68.2295 13.92L70.5815 14.664C70.2455 15.736 69.6135 16.624 68.6855 17.328C67.7735 18.016 66.6455 18.36 65.3015 18.36C63.6375 18.36 62.2215 17.792 61.0535 16.656C59.9015 15.52 59.3255 14 59.3255 12.096C59.3255 10.304 59.8855 8.832 61.0055 7.68C62.1415 6.528 63.4775 5.952 65.0135 5.952C66.8055 5.952 68.2055 6.504 69.2135 7.608C70.2215 8.696 70.7255 10.168 70.7255 12.024C70.7255 12.52 70.7015 12.816 70.6535 12.912H62.1095C62.1415 13.792 62.4615 14.52 63.0695 15.096C63.6935 15.672 64.4375 15.96 65.3015 15.96C66.8055 15.96 67.7815 15.28 68.2295 13.92ZM75.1699 11.256V18H72.3859V6.312H75.0979V7.872C75.4659 7.232 75.9539 6.76 76.5619 6.456C77.1859 6.136 77.8499 5.976 78.5539 5.976C79.9299 5.976 80.9779 6.408 81.6979 7.272C82.4179 8.136 82.7779 9.248 82.7779 10.608V18H79.9939V11.088C79.9939 10.304 79.8019 9.68 79.4179 9.216C79.0339 8.736 78.4259 8.496 77.5939 8.496C76.8259 8.496 76.2259 8.76 75.7939 9.288C75.3779 9.8 75.1699 10.456 75.1699 11.256ZM88.6952 2.736V6.312H91.1192V8.784H88.6952V14.208C88.6952 14.72 88.8152 15.096 89.0552 15.336C89.2952 15.56 89.6712 15.672 90.1832 15.672C90.5032 15.672 90.8232 15.64 91.1432 15.576V17.88C90.7272 18.056 90.1592 18.144 89.4392 18.144C88.3512 18.144 87.4952 17.84 86.8712 17.232C86.2472 16.608 85.9352 15.752 85.9352 14.664V8.784H83.7752V6.312H84.3752C84.9672 6.312 85.4152 6.144 85.7192 5.808C86.0232 5.472 86.1752 5.032 86.1752 4.488V2.736H88.6952ZM106.277 0.983999L100.613 9.504L106.253 18H102.797L98.8368 11.784L94.8288 18H91.4448L97.1328 9.48L91.4928 0.983999H94.9488L98.9088 7.224L102.893 0.983999H106.277Z" fill="#FCFBFE"/>
</svg>
