<svg width="242" height="200" viewBox="0 0 242 200" fill="none" xmlns="http://www.w3.org/2000/svg">
<g clip-path="url(#clip0_217_1539)">
<path d="M158.66 0H88.5784C77.6785 0 68.8424 8.81848 68.8424 19.6966V179.522C68.8424 190.4 77.6785 199.219 88.5784 199.219H158.66C169.56 199.219 178.396 190.4 178.396 179.522V19.6966C178.396 8.81848 169.56 0 158.66 0Z" fill="#3F3D56"/>
<path d="M176.548 19.698V179.522C176.543 184.256 174.656 188.793 171.303 192.14C167.949 195.487 163.403 197.37 158.66 197.375H88.5791C83.8365 197.37 79.2898 195.487 75.9363 192.14C72.5828 188.793 70.6964 184.256 70.6909 179.522V19.698C70.6964 14.9649 72.5828 10.4272 75.9363 7.08041C79.2898 3.73359 83.8365 1.85094 88.5791 1.84546H97.7433V5.00479C97.7434 6.43508 98.3127 7.80676 99.3261 8.81812C100.339 9.82948 101.714 10.3977 103.147 10.3978H144.092C145.525 10.3977 146.9 9.82948 147.913 8.81812C148.926 7.80676 149.496 6.43508 149.496 5.00479V1.84546H158.66C163.403 1.85094 167.949 3.73359 171.303 7.08041C174.656 10.4272 176.543 14.9649 176.548 19.698Z" fill="white"/>
<path d="M68.3383 40.414C67.982 40.4136 67.6403 40.2721 67.3883 40.0206C67.1363 39.7691 66.9945 39.4281 66.9941 39.0725V36.3894C66.9941 36.0336 67.1357 35.6924 67.3878 35.4408C67.6399 35.1892 67.9818 35.0479 68.3383 35.0479C68.6949 35.0479 69.0368 35.1892 69.2889 35.4408C69.5409 35.6924 69.6826 36.0336 69.6826 36.3894V39.0725C69.6822 39.4281 69.5404 39.7691 69.2884 40.0206C69.0364 40.2721 68.6947 40.4136 68.3383 40.414Z" fill="#3F3D56"/>
<path d="M68.3383 54.172C67.982 54.1716 67.6403 54.0302 67.3883 53.7787C67.1363 53.5272 66.9945 53.1862 66.9941 52.8305V45.4448C66.9941 45.089 67.1357 44.7478 67.3878 44.4962C67.6399 44.2446 67.9818 44.1033 68.3383 44.1033C68.6949 44.1033 69.0368 44.2446 69.2889 44.4962C69.5409 44.7478 69.6826 45.089 69.6826 45.4448V52.8305C69.6822 53.1862 69.5404 53.5272 69.2884 53.7787C69.0364 54.0302 68.6947 54.1716 68.3383 54.172Z" fill="#3F3D56"/>
<path d="M68.3383 65.2323C67.982 65.2319 67.6403 65.0905 67.3883 64.839C67.1363 64.5875 66.9945 64.2465 66.9941 63.8908V56.5051C66.9941 56.1493 67.1357 55.8081 67.3878 55.5565C67.6399 55.3049 67.9818 55.1636 68.3383 55.1636C68.6949 55.1636 69.0368 55.3049 69.2889 55.5565C69.5409 55.8081 69.6826 56.1493 69.6826 56.5051V63.8908C69.6822 64.2465 69.5404 64.5875 69.2884 64.839C69.0364 65.0905 68.6947 65.2319 68.3383 65.2323Z" fill="#3F3D56"/>
<path d="M178.564 59.1954C178.208 59.195 177.866 59.0536 177.614 58.8021C177.362 58.5506 177.22 58.2096 177.22 57.8539V39.8325C177.22 39.4767 177.362 39.1355 177.614 38.8839C177.866 38.6323 178.208 38.491 178.564 38.491C178.921 38.491 179.263 38.6323 179.515 38.8839C179.767 39.1355 179.909 39.4767 179.909 39.8325V57.8539C179.908 58.2096 179.766 58.5506 179.514 58.8021C179.262 59.0536 178.921 59.195 178.564 59.1954Z" fill="#3F3D56"/>
<path d="M126.507 6.153H116.089C115.866 6.153 115.653 6.06466 115.495 5.90742C115.338 5.75018 115.249 5.53691 115.249 5.31454C115.249 5.09216 115.338 4.8789 115.495 4.72166C115.653 4.56441 115.866 4.47607 116.089 4.47607H126.507C126.73 4.47607 126.943 4.56441 127.101 4.72166C127.259 4.8789 127.347 5.09216 127.347 5.31454C127.347 5.53691 127.259 5.75018 127.101 5.90742C126.943 6.06466 126.73 6.153 126.507 6.153Z" fill="white"/>
<path d="M131.884 5.9851C132.255 5.9851 132.556 5.68478 132.556 5.31433C132.556 4.94387 132.255 4.64355 131.884 4.64355C131.513 4.64355 131.212 4.94387 131.212 5.31433C131.212 5.68478 131.513 5.9851 131.884 5.9851Z" fill="white"/>
<path d="M212.639 190.84C212.885 190.849 213.127 190.782 213.333 190.649C213.539 190.516 213.7 190.323 213.792 190.096C213.885 189.869 213.905 189.619 213.851 189.38C213.796 189.141 213.669 188.925 213.488 188.76C213.456 188.641 213.434 188.555 213.402 188.435C213.631 187.838 214.034 187.322 214.559 186.955C215.083 186.587 215.706 186.384 216.347 186.372C216.987 186.36 217.617 186.539 218.155 186.887C218.693 187.234 219.115 187.734 219.367 188.322C220.818 191.625 222.688 195.04 221.809 198.7C227.721 185.879 225.518 170.022 216.496 159.192C214.018 157.86 211.997 155.471 211.45 152.68C212.674 153.081 214.186 152.077 213.256 150.803C212.854 150.316 212.448 149.834 212.045 149.348C216.633 144.378 222.228 152.067 217.191 158.763C218.879 160.835 220.346 163.078 221.567 165.454C221.266 162.921 221.572 160.353 222.46 157.961C223.361 155.731 225.073 153.844 226.577 151.91C228.406 149.552 232.227 150.595 232.505 153.562C230.801 154.139 230.603 156.604 232.561 156.923C232.101 162.451 228.534 167.562 223.577 170.031C225.465 175.164 226.236 180.639 225.837 186.091C226.655 179.715 233.49 178.105 238.252 175.529C238.555 175.331 238.909 175.225 239.271 175.225C239.633 175.224 239.987 175.329 240.291 175.526C240.594 175.723 240.834 176.003 240.98 176.334C241.126 176.664 241.173 177.03 241.114 177.387C240.456 177.661 239.827 178 239.236 178.398C238.959 178.588 238.748 178.859 238.631 179.173C238.514 179.487 238.497 179.83 238.583 180.154C238.669 180.478 238.853 180.767 239.111 180.983C239.368 181.198 239.686 181.329 240.02 181.357C237.664 187.34 231.464 191.402 225.056 191.44C224.466 194.116 223.599 196.724 222.468 199.221L212.959 199.312C212.923 199.206 212.892 199.098 212.86 198.993C213.741 199.04 214.624 198.979 215.49 198.811C213.135 196.082 211.32 194.695 212.639 190.84L212.639 190.84Z" fill="#F2F2F2"/>
<path d="M28.5636 190.84C28.3182 190.849 28.076 190.782 27.8697 190.649C27.6635 190.516 27.5033 190.323 27.4107 190.096C27.3181 189.869 27.2977 189.619 27.3522 189.38C27.4067 189.141 27.5335 188.925 27.7154 188.76C27.7468 188.641 27.7692 188.555 27.8006 188.435C27.5715 187.838 27.1689 187.322 26.6444 186.955C26.1198 186.587 25.4972 186.384 24.8564 186.372C24.2156 186.36 23.5858 186.539 23.0477 186.887C22.5096 187.234 22.0877 187.734 21.8361 188.322C20.3851 191.625 18.5154 195.04 19.3941 198.7C13.4816 185.879 15.6852 170.022 24.7072 159.192C27.1852 157.86 29.2061 155.471 29.7529 152.68C28.529 153.081 27.0174 152.077 27.9469 150.803C28.3492 150.316 28.7553 149.834 29.1575 149.348C24.5703 144.378 18.9749 152.067 24.0124 158.763C22.3238 160.835 20.8569 163.078 19.6356 165.454C19.9366 162.921 19.6307 160.353 18.7431 157.961C17.8418 155.731 16.1304 153.844 14.6259 151.91C12.7968 149.552 8.97583 150.595 8.69837 153.562C10.4017 154.139 10.6002 156.604 8.64242 156.923C9.10165 162.451 12.6689 167.562 17.6258 170.031C15.7376 175.164 14.9672 180.639 15.3659 186.091C14.5476 179.715 7.71345 178.105 2.95053 175.529C2.64771 175.331 2.29373 175.225 1.93176 175.225C1.5698 175.224 1.2155 175.329 0.91208 175.526C0.608665 175.723 0.369249 176.003 0.223039 176.334C0.0768288 176.664 0.0301437 177.03 0.0886805 177.387C0.746833 177.661 1.37605 178 1.96705 178.398C2.24395 178.588 2.45531 178.859 2.57214 179.173C2.68897 179.487 2.70557 179.83 2.61964 180.154C2.53372 180.478 2.34949 180.767 2.09221 180.983C1.83492 181.198 1.51717 181.329 1.18252 181.357C3.53864 187.34 9.739 191.402 16.1466 191.44C16.7368 194.116 17.6042 196.724 18.7346 199.221L28.2444 199.312C28.2796 199.206 28.3113 199.098 28.343 198.993C27.4622 199.04 26.579 198.979 25.713 198.811C28.0682 196.082 29.8826 194.695 28.5639 190.84L28.5636 190.84Z" fill="#F2F2F2"/>
<path d="M93.7393 9.75058H84.6659C84.2202 9.75058 83.7928 9.57391 83.4777 9.25942C83.1626 8.94494 82.9856 8.5184 82.9856 8.07365C82.9856 7.62891 83.1626 7.20237 83.4777 6.88789C83.7928 6.5734 84.2202 6.39673 84.6659 6.39673H93.7393C94.185 6.39673 94.6124 6.5734 94.9275 6.88789C95.2426 7.20237 95.4196 7.62891 95.4196 8.07365C95.4196 8.5184 95.2426 8.94494 94.9275 9.25942C94.6124 9.57391 94.185 9.75058 93.7393 9.75058Z" fill="#E6E6E6"/>
<path d="M153.221 9.58292C154.056 9.58292 154.733 8.90721 154.733 8.07369C154.733 7.24016 154.056 6.56445 153.221 6.56445C152.386 6.56445 151.709 7.24016 151.709 8.07369C151.709 8.90721 152.386 9.58292 153.221 9.58292Z" fill="#E6E6E6"/>
<path d="M157.926 9.58292C158.761 9.58292 159.438 8.90721 159.438 8.07369C159.438 7.24016 158.761 6.56445 157.926 6.56445C157.091 6.56445 156.414 7.24016 156.414 8.07369C156.414 8.90721 157.091 9.58292 157.926 9.58292Z" fill="#E6E6E6"/>
<path d="M162.631 9.58292C163.466 9.58292 164.143 8.90721 164.143 8.07369C164.143 7.24016 163.466 6.56445 162.631 6.56445C161.795 6.56445 161.118 7.24016 161.118 8.07369C161.118 8.90721 161.795 9.58292 162.631 9.58292Z" fill="#E6E6E6"/>
<path d="M152.164 33.1887H95.1352C94.0305 33.1902 92.9715 33.6289 92.1903 34.4085C91.4092 35.1881 90.9697 36.245 90.9681 37.3475V74.3438C90.9697 75.4464 91.4092 76.5033 92.1903 77.2829C92.9715 78.0625 94.0305 78.5011 95.1352 78.5026H152.164C153.269 78.5017 154.328 78.0632 155.109 77.2835C155.891 76.5038 156.33 75.4465 156.331 74.3438V37.3475C156.33 36.2448 155.891 35.1876 155.109 34.4078C154.328 33.6281 153.269 33.1897 152.164 33.1887Z" fill="#F2F2F2"/>
<path d="M134.31 48.9826C129.156 58.0765 123.469 66.8587 117.278 75.2835H108.335C114.193 68.1614 120.055 61.0394 125.921 53.9173C127.604 51.8666 129.431 49.7183 131.955 48.885L134.31 48.9826Z" fill="#3F3D56"/>
<path d="M122.425 47.5244C121.492 48.4944 120.598 49.5034 119.757 50.5516C117.904 52.778 116.078 55.024 114.245 57.2635C113.103 58.6566 111.962 60.0498 110.833 61.443C110.475 61.2133 110.135 60.9564 109.816 60.6748C108.013 59.1135 106.895 56.9097 106.701 54.5356C106.508 52.1615 107.253 49.8061 108.778 47.974C110.304 46.1419 112.487 44.9789 114.861 44.7342C117.235 44.4896 119.611 45.1827 121.479 46.665C121.816 46.9271 122.132 47.2144 122.425 47.5244Z" fill="#6C63FF"/>
<path d="M156.331 46.4668V47.8184L155.726 47.597L147.214 44.4913C144.441 43.4818 141.675 42.3281 138.812 41.6003C136.321 40.8892 133.676 40.923 131.204 41.6976C129.001 42.5112 126.984 43.7603 125.276 45.37C124.52 46.0676 123.787 46.782 123.078 47.5232C122.846 47.7681 122.614 48.0129 122.386 48.2577C121.7 49.0023 121.038 49.7636 120.41 50.5518C118.558 52.7787 116.73 55.0258 114.899 57.2628C113.756 58.658 112.613 60.0499 111.484 61.4417C107.714 66.0465 103.966 70.6603 100.24 75.2831C99.7381 75.2774 99.2386 75.2144 98.7512 75.0952C102.552 70.3831 106.371 65.6832 110.207 60.9957C110.295 60.8883 110.382 60.781 110.469 60.6737C110.92 60.1136 111.38 59.5501 111.837 58.99C113.749 56.6524 115.663 54.317 117.577 51.9838C118.968 50.2868 120.349 48.583 121.848 46.9732C121.939 46.8692 122.033 46.7686 122.131 46.6646C122.275 46.5104 122.42 46.3594 122.567 46.2018C125.824 42.8446 129.887 39.8764 134.753 39.7959C137.616 39.7523 140.382 40.6579 143.043 41.6137C145.91 42.6501 148.766 43.7032 151.629 44.7496L156.331 46.4668Z" fill="#3F3D56"/>
<path d="M157.672 160.186H89.5673C88.4626 160.185 87.4035 159.746 86.6223 158.967C85.8412 158.187 85.4018 157.13 85.4005 156.028V146.867C85.4018 145.765 85.8412 144.708 86.6223 143.928C87.4035 143.149 88.4626 142.71 89.5673 142.709H157.672C158.776 142.71 159.836 143.149 160.617 143.928C161.398 144.708 161.837 145.765 161.839 146.867V156.028C161.837 157.13 161.398 158.187 160.617 158.967C159.836 159.746 158.776 160.185 157.672 160.186Z" fill="#F2F2F2"/>
<path d="M157.672 113.232H89.5673C88.4626 113.231 87.4035 112.792 86.6223 112.013C85.8412 111.233 85.4018 110.176 85.4005 109.074V99.9134C85.4018 98.8109 85.8412 97.7539 86.6223 96.9743C87.4035 96.1947 88.4626 95.7561 89.5673 95.7549H157.672C158.776 95.7561 159.836 96.1947 160.617 96.9743C161.398 97.7539 161.837 98.8109 161.839 99.9134V109.074C161.837 110.176 161.398 111.233 160.617 112.013C159.836 112.792 158.776 113.231 157.672 113.232Z" fill="#F2F2F2"/>
<path d="M157.672 136.709H89.5673C88.4626 136.708 87.4035 136.269 86.6223 135.49C85.8412 134.71 85.4018 133.653 85.4005 132.551V123.39C85.4018 122.288 85.8412 121.231 86.6223 120.451C87.4035 119.672 88.4626 119.233 89.5673 119.232H157.672C158.776 119.233 159.836 119.672 160.617 120.451C161.398 121.231 161.837 122.288 161.839 123.39V132.551C161.837 133.653 161.398 134.71 160.617 135.49C159.836 136.269 158.776 136.708 157.672 136.709Z" fill="#F2F2F2"/>
<path d="M131.894 149.88H111.827C111.589 149.88 111.361 149.785 111.192 149.617C111.024 149.449 110.93 149.221 110.93 148.984C110.93 148.746 111.024 148.518 111.192 148.35C111.361 148.182 111.589 148.088 111.827 148.088H131.894C132.132 148.088 132.36 148.182 132.528 148.35C132.697 148.518 132.791 148.746 132.791 148.984C132.791 149.221 132.697 149.449 132.528 149.617C132.36 149.785 132.132 149.88 131.894 149.88Z" fill="white"/>
<path d="M151.193 154.807H111.603C111.365 154.807 111.136 154.713 110.968 154.544C110.8 154.376 110.705 154.149 110.705 153.911C110.705 153.673 110.8 153.446 110.968 153.278C111.136 153.11 111.365 153.015 111.603 153.015H151.193C151.431 153.015 151.66 153.11 151.828 153.278C151.996 153.446 152.091 153.673 152.091 153.911C152.091 154.149 151.996 154.376 151.828 154.544C151.66 154.713 151.431 154.807 151.193 154.807Z" fill="white"/>
<path d="M101.167 157.454C104.491 157.454 107.185 154.765 107.185 151.447C107.185 148.13 104.491 145.441 101.167 145.441C97.8427 145.441 95.1481 148.13 95.1481 151.447C95.1481 154.765 97.8427 157.454 101.167 157.454Z" fill="white"/>
<path d="M99.8255 159.561C99.2114 159.274 98.5094 159.239 97.8691 159.461C97.2288 159.683 96.7006 160.146 96.3969 160.751C96.3371 160.874 96.2877 161.003 96.2492 161.135L87.1861 161.676L85.8429 166.362L98.178 164.282C98.7391 164.399 99.3232 164.327 99.8391 164.078C100.355 163.829 100.774 163.416 101.03 162.905C101.173 162.612 101.257 162.294 101.277 161.969C101.297 161.644 101.253 161.319 101.147 161.011C101.04 160.703 100.875 160.419 100.659 160.175C100.442 159.932 100.18 159.733 99.8873 159.59C99.8668 159.58 99.8462 159.57 99.8255 159.561Z" fill="#FFB6B6"/>
<path d="M79.8205 136.446C79.2233 136.202 78.5805 136.09 77.9357 136.116C77.291 136.142 76.6595 136.306 76.0841 136.598C75.5087 136.89 75.003 137.301 74.6014 137.805C74.1997 138.309 73.9116 138.894 73.7565 139.519L71.2647 149.561L71.7334 167.13C71.7334 167.13 84.7394 169.621 86.9228 168.02C89.1062 166.419 88.9012 165.227 89.1062 166.419C89.3112 167.611 90.2484 168.111 90.2614 167.637C90.2744 167.163 90.3804 167.244 90.9245 167.101C91.4686 166.958 93.87 166.075 93.87 166.075L93.9775 161.066C93.9775 161.066 90.0075 159.564 89.0444 160.012C88.0812 160.46 89.2494 161.203 88.0812 160.46C86.913 159.716 86.7854 157.369 86.5856 159.484C86.3859 161.6 85.8012 161.994 84.9254 161.053C84.0496 160.112 79.9919 160.713 79.9919 160.713L82.574 141.184C82.7038 140.201 82.5041 139.204 82.006 138.347C81.5079 137.49 80.7394 136.821 79.8205 136.446Z" fill="#6C63FF"/>
<path d="M167.408 188.546L167.545 184.847L153.312 182.56L153.111 188.02L167.408 188.546Z" fill="#FFB6B6"/>
<path d="M164.825 189.66L164.69 183.737L167.227 183.83L171.323 178.355C171.525 178.084 171.809 177.885 172.132 177.787C172.456 177.689 172.802 177.696 173.121 177.809C173.44 177.921 173.715 178.132 173.905 178.411C174.095 178.69 174.191 179.022 174.179 179.36L173.919 186.396L171.364 187.516L173.856 188.082L173.758 190.735L164.825 189.66Z" fill="#2F2E41"/>
<path d="M87.3062 197.03L132.386 191.798C132.386 191.798 151.852 192.92 156.42 189.955L161.236 189.348L161.497 182.287C161.497 182.287 158.552 182.309 156.859 181.521C155.165 180.734 156.342 179.771 154.728 180.718C153.113 181.665 153.284 181.779 152.036 181.344C150.787 180.908 93.5452 178.573 93.5452 178.573L87.3062 197.03Z" fill="#2F2E41"/>
<path d="M146.709 193.966L149.33 191.346L140.455 180.009L136.586 183.875L146.709 193.966Z" fill="#FFB6B6"/>
<path d="M144.056 193.029L147.994 188.595L149.79 190.385L156.524 189.151C156.857 189.09 157.201 189.137 157.505 189.285C157.809 189.432 158.058 189.673 158.215 189.972C158.372 190.271 158.43 190.612 158.379 190.946C158.328 191.279 158.172 191.588 157.933 191.827L152.947 196.808L150.311 195.896L151.752 198.002L149.872 199.881L144.056 193.029Z" fill="#2F2E41"/>
<path d="M69.5211 172.391L69.9693 182.787C70.4969 195.027 84.0027 202.434 94.4755 196.044C94.6685 195.926 94.8621 195.804 95.0565 195.678C95.0565 195.678 99.0267 194.614 98.9062 192.929C98.7857 191.244 99.7556 190.423 100.614 190.883C101.472 191.342 112.711 175.425 112.711 175.425C112.711 175.425 136.06 187.049 141.211 189.785L146.646 188.307C146.646 188.307 148.692 189.272 147.955 187.877C147.218 186.483 147.086 187.15 146.86 185.631C146.633 184.112 146.054 182.228 145.703 182.307C145.352 182.386 116.817 162.454 116.817 162.454C116.817 162.454 112.168 157.759 106.402 160.859C106.282 161.314 106.384 161.33 106.384 161.33L87.3352 176.821L84.6436 171.72L69.5211 172.391Z" fill="#2F2E41"/>
<path d="M82.3244 134.189L74.157 130.369L71.7118 134.615C71.7118 134.615 65.1447 143.968 65.0494 150.715C64.9542 157.462 66.1197 159.469 66.1197 159.469C66.1197 159.469 63.2882 161.582 64.7039 162.873C66.1197 164.164 69.2539 164.722 66.8467 165.281C64.4394 165.841 65.0494 171.509 67.7379 172.515C70.4263 173.521 84.8646 173.513 84.8646 173.513C84.7348 173.073 84.7253 172.607 84.837 172.163C84.9486 171.718 85.1775 171.312 85.4997 170.986C86.619 169.866 87.6272 170.669 86.619 168.926C85.6108 167.183 83.9306 168.189 85.2748 165.841C86.619 163.494 86.6185 162.792 86.6185 162.792C86.6185 162.792 89.3588 157.587 85.2313 151.941C84.9797 151.597 85.1912 151.583 85.1912 151.583L81.8582 140.437L82.3244 134.189Z" fill="#6C63FF"/>
<path d="M69.1622 118.126C69.2313 119.848 68.1441 122.288 67.6087 123.758C67.0363 125.331 69.5172 127.419 71.1052 127.876C71.1879 127.331 71.4602 126.833 71.8743 126.468C71.7599 126.987 71.7499 127.524 71.845 128.047L85.2697 131.097C87.6848 128.306 90.1132 124.293 89.5835 119.454C89.7103 118.535 89.5623 117.599 89.1581 116.764C88.7539 115.928 88.1114 115.231 87.3114 114.758L80.5246 110.757C77.6378 110.101 74.0024 109.705 71.9173 111.488C70.9857 112.315 70.2539 113.342 69.7768 114.492C69.2996 115.641 69.0895 116.884 69.1622 118.126Z" fill="#2F2E41"/>
<path d="M81.1619 129.623C85.4307 129.623 88.8912 126.169 88.8912 121.909C88.8912 117.648 85.4307 114.195 81.1619 114.195C76.8932 114.195 73.4326 117.648 73.4326 121.909C73.4326 126.169 76.8932 129.623 81.1619 129.623Z" fill="#FFB6B6"/>
<path d="M72.107 117.788L71.734 119.423L78.2547 120.904C78.2605 120.574 78.3347 120.248 78.4727 119.947C78.6107 119.646 78.8095 119.377 79.0566 119.157C78.9159 119.798 78.932 120.463 79.1034 121.097C82.62 123.067 85.7896 123.764 88.6318 123.262C89.0168 123.349 89.4209 123.281 89.7552 123.071C90.0894 122.861 90.3265 122.527 90.4141 122.143C91.5577 117.13 88.5618 112.006 83.5633 110.762C82.3483 110.458 81.0848 110.4 79.8471 110.591C78.6093 110.781 77.4221 111.217 76.3551 111.871C75.2881 112.525 74.3627 113.386 73.6332 114.402C72.9038 115.418 72.3849 116.569 72.107 117.788V117.788Z" fill="#2F2E41"/>
<path d="M75.9194 107C76.7792 106.814 77.6891 106.859 78.4665 106.277L77.9567 107.445C79.3702 107.059 80.8771 107.209 82.186 107.867C82.5753 108.041 82.9072 108.321 83.1435 108.676C83.2705 108.89 83.3478 109.13 83.3696 109.377C83.3914 109.625 83.3572 109.875 83.2695 110.108C83.1859 110.307 83.0615 110.488 82.9042 110.637C82.747 110.786 82.5603 110.9 82.3561 110.973C81.9941 111.082 81.615 111.122 81.2384 111.09C79.6515 111.053 78.0646 111.016 76.4778 110.98C75.873 111.017 75.2687 110.9 74.722 110.639C74.4314 110.46 74.1995 110.2 74.0548 109.891C73.9101 109.582 73.8588 109.238 73.9074 108.901C74.0588 107.839 75.0596 107.186 75.9194 107Z" fill="#2F2E41"/>
<path d="M117.847 167.456C117.829 167.434 117.808 167.415 117.784 167.398C117.726 167.331 117.656 167.276 117.577 167.237L117.011 166.934L113.256 162.774C113.039 162.661 112.786 162.637 112.551 162.707L112.542 162.71L110.933 163.206L109.55 163.634L107.617 164.232L94.4555 168.3L85.8038 170.973C85.57 171.047 85.3745 171.209 85.2595 171.426C85.1445 171.642 85.1192 171.895 85.189 172.129C85.2297 172.259 85.297 172.378 85.3866 172.48L85.6619 172.786L86.2394 173.428L87.5772 176.195L87.9484 176.608C88.0667 176.74 88.2201 176.835 88.3907 176.883C88.5612 176.93 88.7419 176.929 88.9115 176.878L117.414 168.968C117.562 168.92 117.696 168.837 117.804 168.725C117.912 168.613 117.991 168.477 118.034 168.327C118.077 168.178 118.082 168.02 118.05 167.868C118.017 167.717 117.948 167.575 117.847 167.456Z" fill="#CCCCCC"/>
<path d="M116.155 126.303L115.603 126.392C115.452 126.417 115.317 126.501 115.227 126.625L114.984 126.964L112.79 132.439C112.701 132.564 112.665 132.719 112.69 132.871L112.947 134.43L111.976 162.269C112.001 162.413 112.078 162.543 112.193 162.633L116.452 168.318L116.552 168.397L116.766 168.565C116.876 168.65 117.013 168.693 117.151 168.687L117.513 168.67C117.596 168.666 117.676 168.644 117.749 168.607C117.823 168.57 117.887 168.517 117.939 168.453C117.991 168.39 118.028 168.316 118.049 168.237C118.07 168.158 118.074 168.075 118.059 167.994L116.824 126.779C116.799 126.628 116.715 126.492 116.59 126.403C116.465 126.314 116.31 126.277 116.158 126.302L116.155 126.303Z" fill="#CCCCCC"/>
<path d="M115.231 128.466L113.288 134.373L112.536 157.969L115.561 160.652L115.231 128.466Z" fill="#6C63FF"/>
<path d="M100.205 164.458C99.5906 164.172 98.8886 164.136 98.2483 164.358C97.608 164.58 97.0798 165.043 96.7761 165.648C96.7163 165.772 96.6669 165.901 96.6284 166.033L87.5653 166.573L86.2221 171.259L98.5572 169.179C99.1183 169.296 99.7024 169.225 100.218 168.975C100.734 168.726 101.153 168.314 101.409 167.802C101.698 167.211 101.74 166.53 101.526 165.908C101.311 165.287 100.858 164.776 100.266 164.487C100.246 164.477 100.225 164.468 100.205 164.458Z" fill="#FFB6B6"/>
<path d="M80.1997 141.344C79.6025 141.1 78.9597 140.987 78.3149 141.013C77.6702 141.039 77.0386 141.204 76.4633 141.495C75.8879 141.787 75.3822 142.199 74.9806 142.703C74.5789 143.207 74.2907 143.791 74.1356 144.416L71.6439 154.459L72.1126 172.028C72.1126 172.028 85.1186 174.518 87.302 172.917C89.4854 171.316 89.2804 170.125 89.4854 171.316C89.6904 172.508 90.6275 173.008 90.6406 172.534C90.6536 172.06 90.7596 172.141 91.3037 171.998C91.8478 171.855 94.2491 170.972 94.2491 170.972L94.3567 165.963C94.3567 165.963 90.3867 164.461 89.4235 164.909C88.4604 165.357 89.6285 166.101 88.4604 165.357C87.2922 164.614 87.1645 162.266 86.9648 164.382C86.7651 166.497 86.1804 166.891 85.3046 165.95C84.4287 165.01 80.3711 165.611 80.3711 165.611L82.9531 146.081C83.083 145.099 82.8833 144.101 82.3852 143.244C81.887 142.387 81.1186 141.719 80.1997 141.344Z" fill="#6C63FF"/>
<path d="M1.77e-06 199.601C-0.000154855 199.653 0.0100846 199.705 0.0301275 199.754C0.0501704 199.802 0.0796243 199.846 0.116792 199.883C0.15396 199.92 0.198108 199.95 0.2467 199.97C0.295291 199.99 0.347366 200 0.399928 200H240.777C240.883 200 240.984 199.958 241.059 199.883C241.134 199.808 241.176 199.707 241.176 199.601C241.176 199.495 241.134 199.393 241.059 199.319C240.984 199.244 240.883 199.202 240.777 199.202H0.399908C0.347348 199.202 0.295278 199.212 0.246689 199.232C0.198101 199.252 0.153953 199.281 0.116787 199.318C0.0796217 199.355 0.0501698 199.399 0.0301275 199.448C0.0100853 199.496 -0.000153058 199.548 1.77e-06 199.601Z" fill="#CCCCCC"/>
<path d="M212.113 113.232H144.008C142.903 113.231 141.844 112.792 141.063 112.013C140.282 111.233 139.843 110.176 139.841 109.074V99.9134C139.843 98.8109 140.282 97.7539 141.063 96.9743C141.844 96.1947 142.903 95.7561 144.008 95.7549H212.113C213.217 95.7561 214.276 96.1947 215.058 96.9743C215.839 97.7539 216.278 98.8109 216.279 99.9134V109.074C216.278 110.176 215.839 111.233 215.058 112.013C214.276 112.792 213.217 113.231 212.113 113.232Z" fill="#E6E6E6"/>
<path d="M186.334 102.926H166.268C166.03 102.926 165.802 102.831 165.633 102.663C165.465 102.495 165.37 102.268 165.37 102.03C165.37 101.792 165.465 101.564 165.633 101.396C165.802 101.228 166.03 101.134 166.268 101.134H186.334C186.573 101.134 186.801 101.228 186.969 101.396C187.138 101.564 187.232 101.792 187.232 102.03C187.232 102.268 187.138 102.495 186.969 102.663C186.801 102.831 186.573 102.926 186.334 102.926Z" fill="white"/>
<path d="M205.634 107.853H166.044C165.806 107.853 165.577 107.759 165.409 107.591C165.241 107.423 165.146 107.195 165.146 106.957C165.146 106.72 165.241 106.492 165.409 106.324C165.577 106.156 165.806 106.061 166.044 106.061H205.634C205.872 106.061 206.101 106.156 206.269 106.324C206.437 106.492 206.532 106.72 206.532 106.957C206.532 107.195 206.437 107.423 206.269 107.591C206.101 107.759 205.872 107.853 205.634 107.853Z" fill="white"/>
<path d="M155.608 110.5C158.931 110.5 161.626 107.811 161.626 104.494C161.626 101.176 158.931 98.4871 155.608 98.4871C152.284 98.4871 149.589 101.176 149.589 104.494C149.589 107.811 152.284 110.5 155.608 110.5Z" fill="white"/>
<path d="M190.269 136.709H122.165C121.06 136.708 120.001 136.269 119.22 135.49C118.438 134.71 117.999 133.653 117.998 132.551V123.39C117.999 122.288 118.438 121.231 119.22 120.451C120.001 119.672 121.06 119.233 122.165 119.232H190.269C191.374 119.233 192.433 119.672 193.214 120.451C193.995 121.231 194.435 122.288 194.436 123.39V132.551C194.435 133.653 193.995 134.71 193.214 135.49C192.433 136.269 191.374 136.708 190.269 136.709Z" fill="#E6E6E6"/>
<path d="M164.491 126.403H144.425C144.186 126.403 143.958 126.308 143.79 126.14C143.621 125.972 143.527 125.744 143.527 125.507C143.527 125.269 143.621 125.041 143.79 124.873C143.958 124.705 144.186 124.611 144.425 124.611H164.491C164.729 124.611 164.957 124.705 165.126 124.873C165.294 125.041 165.389 125.269 165.389 125.507C165.389 125.744 165.294 125.972 165.126 126.14C164.957 126.308 164.729 126.403 164.491 126.403Z" fill="white"/>
<path d="M183.791 131.33H144.2C143.962 131.33 143.734 131.236 143.565 131.068C143.397 130.9 143.302 130.672 143.302 130.434C143.302 130.197 143.397 129.969 143.565 129.801C143.734 129.633 143.962 129.538 144.2 129.538H183.791C184.029 129.538 184.257 129.633 184.425 129.801C184.594 129.969 184.688 130.197 184.688 130.434C184.688 130.672 184.594 130.9 184.425 131.068C184.257 131.236 184.029 131.33 183.791 131.33Z" fill="white"/>
<path d="M133.764 133.977C137.088 133.977 139.783 131.288 139.783 127.97C139.783 124.653 137.088 121.964 133.764 121.964C130.44 121.964 127.745 124.653 127.745 127.97C127.745 131.288 130.44 133.977 133.764 133.977Z" fill="white"/>
</g>
<defs>
<clipPath id="clip0_217_1539">
<rect width="241.176" height="200" fill="white"/>
</clipPath>
</defs>
</svg>
