<svg width="261" height="200" viewBox="0 0 261 200" fill="none" xmlns="http://www.w3.org/2000/svg">
<g clip-path="url(#clip0_217_1591)">
<path opacity="0.1" d="M119.197 176.602C178.899 176.602 227.297 172.842 227.297 168.203C227.297 163.565 178.899 159.804 119.197 159.804C59.4954 159.804 11.0974 163.565 11.0974 168.203C11.0974 172.842 59.4954 176.602 119.197 176.602Z" fill="#6C63FF"/>
<g opacity="0.1">
<path d="M214.941 120.344C214.295 118.382 211.675 117.479 209.091 118.329C208.718 118.45 208.358 118.606 208.015 118.795C207.849 118.749 207.679 118.708 207.506 118.677C207.647 118.113 207.701 117.53 207.666 116.949C208.558 116.353 209.281 115.537 209.766 114.58C210.252 113.623 210.483 112.557 210.439 111.485C211.328 110.886 212.049 110.07 212.532 109.113C213.016 108.156 213.246 107.092 213.201 106.02C214.097 105.43 214.819 104.611 215.294 103.648C216.541 101.18 216.024 98.4054 214.14 97.4509C212.255 96.4965 209.714 97.7258 208.468 100.195C207.973 101.147 207.743 102.215 207.799 103.287C206.91 103.885 206.189 104.702 205.705 105.659C205.222 106.615 204.991 107.68 205.036 108.751C204.147 109.35 203.427 110.166 202.943 111.123C202.459 112.08 202.229 113.145 202.274 114.216C201.383 114.813 200.66 115.63 200.175 116.587C199.689 117.544 199.458 118.61 199.502 119.683C198.606 120.274 197.883 121.092 197.408 122.055C197.174 122.519 196.996 123.009 196.879 123.516C196.567 123.059 196.186 122.653 195.75 122.312C195.7 121.923 195.615 121.54 195.496 121.167C194.646 118.578 192.367 117 190.409 117.647C188.45 118.293 187.544 120.912 188.394 123.5C188.742 124.61 189.411 125.592 190.317 126.32C190.367 126.709 190.452 127.093 190.571 127.466C191.065 128.967 192.039 130.128 193.153 130.711C193.054 131.035 192.984 131.367 192.942 131.703C191.891 132.714 191.215 134.052 191.024 135.498C189.973 136.51 189.296 137.849 189.106 139.296C188.586 139.796 188.155 140.382 187.834 141.029C186.586 143.498 187.102 146.274 188.987 147.226C190.871 148.178 193.412 146.954 194.661 144.483C194.99 143.838 195.206 143.142 195.297 142.424C196.348 141.413 197.024 140.075 197.215 138.629C198.266 137.617 198.943 136.278 199.133 134.831C200.176 133.818 200.844 132.48 201.028 131.037C202.083 130.025 202.761 128.684 202.951 127.234C203.274 126.927 203.563 126.586 203.813 126.216C204.852 126.43 205.929 126.362 206.934 126.02C207.306 125.899 207.666 125.743 208.01 125.554C209.135 125.851 210.322 125.809 211.423 125.432C214 124.59 215.584 122.309 214.941 120.344Z" fill="#3F3D56"/>
<g opacity="0.1">
<path d="M210.38 112.607C210.113 112.87 209.82 113.104 209.505 113.307C209.545 114.034 209.45 114.761 209.223 115.453C209.423 115.176 209.602 114.884 209.757 114.58C210.073 113.961 210.283 113.295 210.38 112.607Z" fill="black"/>
<path d="M213.143 107.143C212.876 107.405 212.582 107.64 212.268 107.843C212.308 108.569 212.212 109.297 211.985 109.988C212.186 109.711 212.365 109.418 212.519 109.113C212.834 108.495 213.044 107.829 213.143 107.143Z" fill="black"/>
<path d="M206.878 105.109C206.854 104.735 206.869 104.359 206.921 103.987C206.427 104.474 206.016 105.039 205.705 105.659C205.552 105.965 205.422 106.282 205.319 106.608C205.74 106.015 206.269 105.506 206.878 105.109Z" fill="black"/>
<path d="M189.345 138.178C189.568 137.868 189.819 137.58 190.096 137.318C190.139 136.973 190.213 136.632 190.317 136.3C190.096 136.597 189.901 136.913 189.734 137.244C189.581 137.545 189.451 137.857 189.345 138.178Z" fill="black"/>
<path d="M191.263 134.386C191.485 134.076 191.737 133.788 192.013 133.526C192.055 133.189 192.126 132.857 192.225 132.533C192.013 132.822 191.826 133.128 191.665 133.447C191.508 133.749 191.373 134.063 191.263 134.386Z" fill="black"/>
<path d="M207.615 118.072C207.35 118.334 207.058 118.568 206.743 118.769C206.778 119.35 206.724 119.933 206.583 120.497C206.754 120.527 206.924 120.566 207.092 120.614C207.435 120.426 207.795 120.27 208.167 120.148C210.757 119.298 213.374 120.202 214.018 122.164C214.177 122.657 214.205 123.184 214.099 123.691C214.951 122.689 215.305 121.467 214.938 120.347C214.292 118.385 211.672 117.481 209.088 118.331C208.716 118.453 208.356 118.609 208.012 118.797C207.847 118.751 207.677 118.71 207.504 118.68C207.552 118.476 207.588 118.275 207.615 118.072Z" fill="black"/>
<path d="M188.399 140.084C188.178 140.382 187.983 140.698 187.817 141.029C187.662 141.336 187.531 141.654 187.425 141.981C187.652 141.669 187.907 141.379 188.188 141.115C188.227 140.766 188.298 140.421 188.399 140.084Z" fill="black"/>
<path d="M204.103 110.574C204.08 110.199 204.094 109.823 204.146 109.451C203.652 109.938 203.241 110.503 202.93 111.123C202.777 111.429 202.647 111.747 202.544 112.073C202.965 111.479 203.494 110.971 204.103 110.574Z" fill="black"/>
<path d="M200.112 132.859C200.062 133.238 199.977 133.611 199.858 133.974C200.057 133.696 200.234 133.403 200.389 133.098C200.556 132.771 200.695 132.431 200.804 132.08C200.596 132.359 200.364 132.619 200.112 132.859Z" fill="black"/>
<path d="M196.276 140.448C196.226 140.827 196.141 141.2 196.022 141.563C196.223 141.286 196.401 140.993 196.556 140.688C196.722 140.36 196.861 140.02 196.971 139.67C196.762 139.949 196.53 140.21 196.276 140.448Z" fill="black"/>
<path d="M198.194 136.651C198.144 137.03 198.059 137.403 197.94 137.766C198.143 137.493 198.325 137.206 198.484 136.906C198.651 136.579 198.79 136.238 198.899 135.888C198.686 136.162 198.45 136.417 198.194 136.651Z" fill="black"/>
<path d="M202.03 129.064C201.98 129.442 201.895 129.814 201.776 130.176C201.975 129.9 202.153 129.608 202.307 129.303C202.476 128.971 202.615 128.624 202.724 128.268C202.517 128.553 202.285 128.82 202.03 129.064Z" fill="black"/>
<path d="M189.472 119.466C191.436 118.822 193.715 120.398 194.56 122.986C194.679 123.36 194.764 123.745 194.814 124.134C195.25 124.475 195.631 124.881 195.943 125.338C196.06 124.831 196.238 124.339 196.472 123.874C196.561 123.701 196.658 123.536 196.757 123.365C196.469 122.966 196.126 122.608 195.74 122.302C195.69 121.913 195.605 121.53 195.485 121.156C194.636 118.568 192.357 116.99 190.398 117.636C189.279 118.003 188.506 119.013 188.206 120.291C188.55 119.911 188.986 119.627 189.472 119.466Z" fill="black"/>
<path d="M198.578 121.502C198.556 121.129 198.571 120.753 198.624 120.383C198.129 120.869 197.717 121.434 197.406 122.055C197.252 122.359 197.122 122.676 197.019 123.002C197.441 122.409 197.97 121.901 198.578 121.502Z" fill="black"/>
<path d="M201.341 116.036C201.318 115.662 201.333 115.287 201.386 114.916C200.89 115.401 200.479 115.965 200.168 116.585C200.014 116.891 199.885 117.209 199.781 117.535C200.202 116.941 200.731 116.433 201.341 116.036Z" fill="black"/>
<path d="M194.359 144.243C194.309 144.623 194.223 144.997 194.104 145.361C194.522 144.781 194.843 144.137 195.053 143.454C194.845 143.737 194.613 144.001 194.359 144.243Z" fill="black"/>
</g>
<path d="M218.71 95.0915C219.607 94.5015 220.329 93.6826 220.804 92.7195C222.053 90.2507 221.536 87.4739 219.651 86.5195C217.767 85.5651 215.226 86.7944 213.977 89.2657C213.482 90.221 213.252 91.2914 213.31 92.3657C212.421 92.9641 211.701 93.7807 211.217 94.7374C210.733 95.6941 210.503 96.7589 210.548 97.8301C209.651 98.4195 208.928 99.2386 208.455 100.202C208.302 100.504 208.173 100.818 208.071 101.141C208.735 100.179 209.698 99.4634 210.81 99.1052C210.937 99.4973 211.14 99.8603 211.408 100.173C211.675 100.486 212.003 100.743 212.37 100.929C212.738 101.114 213.139 101.225 213.549 101.254C213.96 101.284 214.372 101.232 214.763 101.101C215.138 102.207 215.138 103.407 214.763 104.514C214.961 104.239 215.138 103.95 215.292 103.648C215.785 102.695 216.015 101.628 215.958 100.556C216.848 99.9586 217.57 99.1422 218.054 98.1852C218.537 97.2283 218.767 96.1629 218.72 95.0915H218.71Z" fill="#3F3D56"/>
<path d="M249.07 60.0602C249.837 59.7022 250.578 59.2915 251.288 58.8309L243.065 52.8193L252.73 57.8001C254.685 56.2458 256.303 54.3085 257.484 52.1067C258.665 49.905 259.384 47.4851 259.598 44.9955L243.171 45.1635L259.633 42.4096C259.463 39.9175 258.785 37.4866 257.642 35.266C256.499 33.0455 254.914 31.0823 252.985 29.4971C251.055 27.9118 248.823 26.738 246.424 26.0477C244.024 25.3573 241.51 25.1651 239.034 25.4828C236.557 25.8004 234.172 26.6213 232.025 27.8949C229.877 29.1685 228.013 30.868 226.546 32.8889C225.079 34.9099 224.04 37.2097 223.493 39.647C222.947 42.0843 222.904 44.6077 223.368 47.0622C222.174 47.6177 221.043 48.3004 219.995 49.0983L228.579 61.0426L218.273 50.5872C216.098 52.7244 214.49 55.3705 213.594 58.2862C212.698 61.2019 212.543 64.2951 213.143 67.2859C210.029 68.74 207.387 71.0412 205.519 73.9266C203.651 76.8119 202.631 80.165 202.577 83.6026C202.523 87.0403 203.437 90.4238 205.213 93.3666C206.99 96.3093 209.558 98.6927 212.624 100.244C215.69 101.796 219.131 102.453 222.552 102.14C225.974 101.828 229.239 100.559 231.974 98.4776C234.709 96.3965 236.803 93.5875 238.018 90.3716C239.233 87.1557 239.52 83.6626 238.845 80.2916C242.571 78.5563 245.605 75.6176 247.459 71.948C249.314 68.2785 249.881 64.0914 249.07 60.0602Z" fill="#6C63FF"/>
<path opacity="0.1" d="M214.763 55.3975C212.902 59.0653 212.333 63.2542 213.148 67.2859C210.034 68.74 207.392 71.0413 205.524 73.9266C203.656 76.812 202.636 80.165 202.582 83.6027C202.528 87.0403 203.442 90.4238 205.218 93.3666C206.995 96.3094 209.563 98.6927 212.629 100.244C215.695 101.796 219.136 102.453 222.557 102.14C225.979 101.828 229.244 100.559 231.979 98.4776C234.714 96.3965 236.808 93.5875 238.023 90.3716C239.238 87.1557 239.525 83.6627 238.85 80.2916C242.444 78.622 215.684 53.5625 214.763 55.3975Z" fill="black"/>
<path d="M235.401 28.8644C236.903 28.8644 238.12 27.6462 238.12 26.1436C238.12 24.641 236.903 23.4229 235.401 23.4229C233.899 23.4229 232.682 24.641 232.682 26.1436C232.682 27.6462 233.899 28.8644 235.401 28.8644Z" fill="#6C63FF"/>
<path d="M251.283 30.6102C252.784 30.6102 254.002 29.3921 254.002 27.8895C254.002 26.3868 252.784 25.1687 251.283 25.1687C249.781 25.1687 248.564 26.3868 248.564 27.8895C248.564 29.3921 249.781 30.6102 251.283 30.6102Z" fill="#6C63FF"/>
<path d="M257.408 55.059C258.909 55.059 260.127 53.8408 260.127 52.3382C260.127 50.8356 258.909 49.6174 257.408 49.6174C255.906 49.6174 254.689 50.8356 254.689 52.3382C254.689 53.8408 255.906 55.059 257.408 55.059Z" fill="#6C63FF"/>
<path d="M249.141 67.2679C250.643 67.2679 251.86 66.0498 251.86 64.5472C251.86 63.0445 250.643 61.8264 249.141 61.8264C247.639 61.8264 246.422 63.0445 246.422 64.5472C246.422 66.0498 247.639 67.2679 249.141 67.2679Z" fill="#6C63FF"/>
<path d="M237.848 92.6254C239.35 92.6254 240.567 91.4072 240.567 89.9046C240.567 88.402 239.35 87.1838 237.848 87.1838C236.346 87.1838 235.129 88.402 235.129 89.9046C235.129 91.4072 236.346 92.6254 237.848 92.6254Z" fill="#6C63FF"/>
<path opacity="0.1" d="M237.848 92.6254C239.35 92.6254 240.567 91.4072 240.567 89.9046C240.567 88.402 239.35 87.1838 237.848 87.1838C236.346 87.1838 235.129 88.402 235.129 89.9046C235.129 91.4072 236.346 92.6254 237.848 92.6254Z" fill="black"/>
<path d="M212.738 63.9059C214.24 63.9059 215.457 62.6877 215.457 61.1851C215.457 59.6825 214.24 58.4644 212.738 58.4644C211.236 58.4644 210.019 59.6825 210.019 61.1851C210.019 62.6877 211.236 63.9059 212.738 63.9059Z" fill="#6C63FF"/>
<path opacity="0.1" d="M212.738 63.9059C214.24 63.9059 215.457 62.6877 215.457 61.1851C215.457 59.6825 214.24 58.4644 212.738 58.4644C211.236 58.4644 210.019 59.6825 210.019 61.1851C210.019 62.6877 211.236 63.9059 212.738 63.9059Z" fill="black"/>
<path opacity="0.1" d="M209.839 105.936C208.03 105.023 207.483 102.434 208.539 100.047C208.483 100.144 208.429 100.243 208.379 100.347C207.13 102.816 207.646 105.59 209.531 106.545C211.415 107.499 213.956 106.27 215.203 103.801C215.256 103.699 215.302 103.595 215.348 103.493C214.053 105.761 211.644 106.853 209.839 105.936Z" fill="black"/>
<path opacity="0.1" d="M207.153 111.251C205.347 110.337 204.797 107.749 205.855 105.359C205.799 105.458 205.743 105.557 205.693 105.659C204.444 108.128 204.96 110.905 206.845 111.856C208.73 112.808 211.27 111.584 212.519 109.113C212.57 109.011 212.619 108.909 212.664 108.805C211.367 111.072 208.961 112.164 207.153 111.251Z" fill="black"/>
<path opacity="0.1" d="M204.467 116.562C202.661 115.649 202.111 113.06 203.169 110.673C203.113 110.77 203.057 110.869 203.007 110.973C201.758 113.442 202.277 116.216 204.161 117.171C206.046 118.125 208.585 116.896 209.833 114.427C209.884 114.325 209.933 114.221 209.978 114.119C208.684 116.387 206.275 117.479 204.467 116.562Z" fill="black"/>
<path opacity="0.1" d="M201.791 121.889C199.982 120.976 199.435 118.387 200.491 116C200.435 116.097 200.382 116.196 200.328 116.298C199.082 118.767 199.598 121.543 201.483 122.498C203.368 123.452 205.909 122.223 207.155 119.752C207.209 119.65 207.254 119.548 207.3 119.444C205.998 121.699 203.589 122.79 201.791 121.889Z" fill="black"/>
<path opacity="0.1" d="M199.097 127.188C197.289 126.275 196.742 123.686 197.797 121.299C197.741 121.396 197.688 121.495 197.637 121.599C196.388 124.068 196.905 126.842 198.789 127.797C200.674 128.751 203.215 127.522 204.464 125.053C204.515 124.951 204.563 124.847 204.609 124.745C203.317 127.013 200.903 128.105 199.097 127.188Z" fill="black"/>
<path opacity="0.1" d="M196.411 132.503C194.605 131.589 194.056 129.001 195.114 126.613C195.058 126.71 195.002 126.809 194.951 126.911C193.702 129.38 194.219 132.157 196.106 133.111C197.993 134.065 200.519 132.834 201.791 130.365C201.842 130.263 201.89 130.161 201.936 130.057C200.626 132.325 198.23 133.416 196.411 132.503Z" fill="black"/>
<path opacity="0.1" d="M193.725 137.814C191.919 136.901 191.37 134.312 192.428 131.925C192.372 132.024 192.319 132.121 192.265 132.225C191.019 134.694 191.535 137.468 193.42 138.423C195.305 139.377 197.846 138.148 199.092 135.679C199.146 135.577 199.191 135.473 199.237 135.371C197.942 137.639 195.534 138.731 193.725 137.814Z" fill="black"/>
<path opacity="0.1" d="M191.042 143.129C189.233 142.215 188.687 139.627 189.742 137.239C189.686 137.336 189.633 137.435 189.582 137.537C188.333 140.006 188.849 142.783 190.734 143.737C192.619 144.691 195.16 143.462 196.409 140.991C196.46 140.889 196.505 140.787 196.551 140.683C195.256 142.951 192.848 144.032 191.042 143.129Z" fill="black"/>
<path opacity="0.1" d="M189.277 146.621C187.471 145.704 186.921 143.118 187.979 140.729C187.923 140.828 187.868 140.927 187.817 141.029C186.568 143.498 187.084 146.274 188.969 147.226C190.854 148.178 193.395 146.954 194.643 144.483C194.694 144.381 194.743 144.279 194.788 144.175C193.491 146.442 191.083 147.534 189.277 146.621Z" fill="black"/>
<path d="M237.805 122.974C238.085 122.17 238.256 121.332 238.313 120.482C238.5 120.482 238.685 120.443 238.856 120.368C239.027 120.292 239.181 120.183 239.308 120.046C239.434 119.908 239.532 119.746 239.593 119.57C239.654 119.393 239.679 119.206 239.665 119.02C239.65 118.833 239.598 118.652 239.51 118.487C239.423 118.321 239.302 118.176 239.156 118.06C239.01 117.943 238.841 117.858 238.661 117.81C238.48 117.762 238.292 117.751 238.107 117.779C237.805 116.402 237.2 115.109 236.336 113.994C235.472 112.88 234.37 111.972 233.112 111.337C233.274 111.015 233.302 110.642 233.19 110.299C233.077 109.957 232.833 109.673 232.512 109.51C232.19 109.347 231.817 109.319 231.474 109.432C231.132 109.544 230.848 109.789 230.685 110.111C230.626 110.225 230.585 110.348 230.563 110.475C229.071 110.196 227.534 110.279 226.079 110.715C224.625 111.151 223.296 111.928 222.203 112.982C221.377 112.848 220.537 112.823 219.705 112.908L218.603 117.924L218.537 113.088C217.273 113.366 216.079 113.898 215.027 114.653C213.976 115.408 213.089 116.369 212.422 117.478C211.754 118.588 211.32 119.821 211.145 121.105C210.97 122.388 211.058 123.693 211.405 124.94C211.751 126.188 212.348 127.352 213.159 128.361C213.97 129.37 214.978 130.203 216.122 130.809C217.266 131.415 218.521 131.781 219.811 131.885C221.101 131.989 222.399 131.828 223.624 131.413C223.756 131.65 223.955 131.842 224.197 131.963C224.446 132.09 224.728 132.136 225.004 132.097C225.281 132.057 225.539 131.933 225.742 131.742C225.946 131.55 226.085 131.301 226.142 131.027C226.199 130.753 226.169 130.469 226.059 130.212C226.492 129.914 226.901 129.58 227.279 129.214C229.265 129.537 231.302 129.223 233.098 128.316C234.894 127.41 236.358 125.957 237.278 124.167L232.153 123.305L237.805 122.974Z" fill="#6C63FF"/>
<g opacity="0.1">
<path d="M229.887 125.409C227.994 122.91 226.834 119.95 225.499 117.11C224.963 115.944 224.363 114.809 223.701 113.709L222.699 112.541C222.531 112.684 222.363 112.831 222.19 112.986C221.364 112.853 220.524 112.828 219.692 112.913L218.591 117.929L218.525 113.093C217.261 113.371 216.066 113.903 215.015 114.658C213.963 115.412 213.077 116.374 212.409 117.483C211.741 118.593 211.307 119.826 211.132 121.109C210.957 122.392 211.046 123.698 211.392 124.945C211.738 126.193 212.335 127.357 213.146 128.366C213.958 129.375 214.966 130.208 216.11 130.814C217.253 131.419 218.508 131.786 219.798 131.89C221.088 131.994 222.386 131.833 223.612 131.418C223.743 131.655 223.942 131.847 224.184 131.968C224.433 132.095 224.715 132.141 224.992 132.102C225.268 132.062 225.526 131.938 225.729 131.747C225.933 131.555 226.073 131.306 226.129 131.032C226.186 130.758 226.157 130.474 226.046 130.217C226.48 129.919 226.888 129.585 227.267 129.219C229.211 129.534 231.205 129.239 232.974 128.374C231.793 127.558 230.751 126.557 229.887 125.409Z" fill="black"/>
</g>
<path d="M196.376 114.669C196.48 114.461 196.53 114.23 196.521 113.998C196.511 113.766 196.442 113.54 196.32 113.342C196.198 113.144 196.027 112.981 195.824 112.868C195.621 112.755 195.392 112.696 195.16 112.696C194.774 110.651 193.729 108.789 192.184 107.395C192.433 106.423 192.527 105.418 192.464 104.417L187.466 103.564L192.319 103.259C192.232 102.803 192.112 102.354 191.96 101.915C192.149 101.785 192.303 101.61 192.408 101.406C192.53 101.163 192.577 100.888 192.542 100.618C192.507 100.348 192.391 100.095 192.211 99.8909C192.03 99.687 191.793 99.542 191.529 99.4746C191.266 99.4071 190.988 99.4203 190.732 99.5126C189.446 97.6952 187.565 96.3859 185.415 95.812C183.266 95.2382 180.983 95.4361 178.964 96.3715C176.945 97.3068 175.317 98.9204 174.363 100.932C173.409 102.943 173.19 105.226 173.743 107.382C173.449 107.506 173.209 107.732 173.067 108.018C172.942 108.265 172.895 108.544 172.933 108.817C172.97 109.091 173.09 109.347 173.277 109.551C173.463 109.754 173.707 109.896 173.977 109.958C174.246 110.019 174.527 109.997 174.784 109.894C175.271 110.714 175.879 111.456 176.587 112.096C176.072 114.106 176.227 116.229 177.03 118.143L183.732 116.402L177.754 119.548C178.811 121.228 180.367 122.536 182.203 123.289C184.039 124.041 186.064 124.201 187.996 123.745C189.927 123.289 191.667 122.24 192.974 120.746C194.28 119.251 195.087 117.386 195.282 115.41C195.512 115.39 195.734 115.311 195.925 115.181C196.116 115.052 196.272 114.875 196.376 114.669Z" fill="#6C63FF"/>
<path opacity="0.1" d="M196.376 114.669C196.48 114.461 196.53 114.23 196.521 113.998C196.511 113.766 196.442 113.54 196.32 113.342C196.198 113.144 196.027 112.981 195.824 112.868C195.621 112.755 195.392 112.696 195.16 112.696C194.774 110.651 193.729 108.788 192.184 107.395C192.225 107.234 192.26 107.077 192.291 106.916C192.113 107.045 191.949 107.191 191.8 107.351C190.897 108.342 190.434 109.673 189.541 110.673C188.488 111.854 186.911 112.47 185.337 112.635C183.762 112.801 182.178 112.559 180.624 112.256C179.337 112.001 178.032 111.706 176.727 111.831C176.6 111.831 176.472 111.859 176.355 111.879C176.432 111.953 176.508 112.027 176.587 112.098C176.072 114.108 176.227 116.232 177.03 118.145L183.732 116.402L177.754 119.548C178.811 121.228 180.367 122.536 182.203 123.289C184.039 124.041 186.064 124.2 187.996 123.745C189.927 123.289 191.667 122.24 192.974 120.746C194.28 119.251 195.087 117.385 195.282 115.409C195.512 115.389 195.734 115.311 195.925 115.181C196.116 115.052 196.272 114.875 196.376 114.669Z" fill="black"/>
</g>
<g opacity="0.1">
<path d="M22.762 130.118C23.0876 129.128 24.4077 128.672 25.71 129.1C25.8973 129.161 26.0786 129.24 26.2517 129.334C26.3357 129.311 26.4222 129.291 26.5061 129.275C26.4346 128.991 26.4072 128.698 26.4247 128.405C25.9777 128.102 25.6152 127.691 25.3717 127.209C25.1283 126.727 25.0118 126.191 25.0334 125.651C24.5824 125.354 24.2189 124.942 23.9804 124.457C23.7318 123.977 23.6151 123.44 23.6421 122.9C23.1914 122.601 22.8281 122.189 22.5891 121.704C21.9634 120.462 22.2177 119.064 23.1715 118.581C24.1254 118.097 25.4022 118.721 26.0305 119.963C26.2786 120.444 26.3945 120.982 26.3662 121.523C26.8144 121.824 27.1779 122.235 27.4215 122.716C27.6652 123.198 27.7809 123.735 27.7575 124.274C28.2056 124.576 28.5688 124.987 28.8125 125.469C29.0561 125.952 29.1719 126.488 29.1488 127.028C29.5971 127.329 29.9605 127.74 30.2041 128.222C30.4478 128.703 30.5635 129.24 30.5401 129.779C30.9917 130.077 31.356 130.49 31.5957 130.976C31.7101 131.21 31.7955 131.458 31.8501 131.714C32.0067 131.483 32.1981 131.278 32.4173 131.105C32.4434 130.909 32.4877 130.716 32.5495 130.528C32.9794 129.224 34.1265 128.43 35.1159 128.746C36.1054 129.062 36.5581 130.393 36.1334 131.696C35.9578 132.255 35.6206 132.75 35.1643 133.119C35.1378 133.314 35.0936 133.506 35.032 133.694C34.8232 134.385 34.3582 134.969 33.7323 135.328C33.7813 135.494 33.8171 135.664 33.8391 135.837C34.1017 136.089 34.3193 136.384 34.4826 136.71C34.649 137.035 34.7575 137.386 34.8031 137.748C35.0667 138 35.2852 138.295 35.4491 138.621C35.6152 138.946 35.7237 139.297 35.7696 139.66C36.0338 139.912 36.2524 140.208 36.4157 140.535C37.0439 141.777 36.7845 143.177 35.8358 143.655C34.887 144.134 33.6051 143.518 32.9768 142.273C32.8112 141.948 32.7028 141.597 32.6563 141.235C32.1264 140.726 31.7855 140.052 31.6898 139.324C31.1599 138.815 30.819 138.141 30.7233 137.412C30.4599 137.16 30.2414 136.865 30.0772 136.539C29.9127 136.214 29.8044 135.863 29.7567 135.501C29.4941 135.249 29.2765 134.953 29.1132 134.628C28.9468 134.303 28.8383 133.952 28.7927 133.589C28.629 133.437 28.4831 133.266 28.3578 133.08C27.8345 133.187 27.2922 133.154 26.7859 132.984C26.5979 132.921 26.4157 132.842 26.2416 132.747C25.6759 132.897 25.0783 132.876 24.5247 132.686C23.2351 132.256 22.439 131.108 22.762 130.118Z" fill="#3F3D56"/>
<g opacity="0.1">
<path d="M25.0588 126.216C25.1937 126.349 25.342 126.468 25.5014 126.57C25.4799 126.935 25.5282 127.302 25.6439 127.649C25.5416 127.51 25.4514 127.363 25.3742 127.209C25.2152 126.897 25.1086 126.562 25.0588 126.216Z" fill="black"/>
<path d="M23.6675 123.468C23.8031 123.599 23.9513 123.717 24.1101 123.819C24.0887 124.185 24.1371 124.552 24.2525 124.9C23.9444 124.477 23.7437 123.986 23.6675 123.468Z" fill="black"/>
<path d="M26.8291 122.442C26.8412 122.253 26.8344 122.064 26.8088 121.877C27.0574 122.122 27.2645 122.407 27.4218 122.719C27.4986 122.873 27.5632 123.033 27.6151 123.198C27.4031 122.898 27.1365 122.642 26.8291 122.442Z" fill="black"/>
<path d="M35.6552 139.102C35.544 138.946 35.4179 138.801 35.2787 138.67C35.2555 138.497 35.2181 138.327 35.1668 138.161C35.2772 138.31 35.375 138.468 35.4593 138.634C35.5365 138.785 35.602 138.941 35.6552 139.102Z" fill="black"/>
<path d="M34.681 137.191C34.5698 137.035 34.4437 136.89 34.3046 136.758C34.2838 136.586 34.2481 136.415 34.1977 136.249C34.4073 136.533 34.5688 136.849 34.6759 137.186L34.681 137.191Z" fill="black"/>
<path d="M26.4527 128.975C26.5862 129.107 26.7338 129.224 26.8927 129.324C26.8737 129.616 26.9012 129.91 26.9741 130.194C26.8884 130.209 26.8035 130.229 26.7198 130.253C26.5455 130.159 26.3634 130.081 26.1754 130.019C24.8732 129.591 23.5531 130.047 23.23 131.037C23.1491 131.283 23.1342 131.546 23.1868 131.8C22.9775 131.58 22.8287 131.309 22.7547 131.015C22.6808 130.72 22.6841 130.411 22.7646 130.118C23.0901 129.128 24.4102 128.672 25.7125 129.1C25.8998 129.161 26.0812 129.24 26.2543 129.334C26.3382 129.311 26.4247 129.291 26.5086 129.275C26.4842 129.176 26.4655 129.076 26.4527 128.975Z" fill="black"/>
<path d="M36.1334 140.062C36.2443 140.212 36.3422 140.371 36.4259 140.538C36.5035 140.692 36.569 140.852 36.6217 141.016C36.5105 140.859 36.3845 140.714 36.2453 140.581C36.2226 140.405 36.1852 140.231 36.1334 140.062Z" fill="black"/>
<path d="M28.2204 125.198C28.2326 125.01 28.2258 124.82 28.2001 124.633C28.4493 124.878 28.6564 125.163 28.8131 125.475C28.8899 125.629 28.9545 125.788 29.0064 125.951C28.7944 125.653 28.5277 125.397 28.2204 125.198Z" fill="black"/>
<path d="M30.2324 136.422C30.2562 136.612 30.2979 136.8 30.357 136.982C30.145 136.691 29.9834 136.367 29.8788 136.023C29.9845 136.166 30.1028 136.3 30.2324 136.422Z" fill="black"/>
<path d="M32.1629 140.245C32.1886 140.435 32.2311 140.623 32.2901 140.805C32.1879 140.666 32.0977 140.519 32.0205 140.365C31.9368 140.201 31.8671 140.031 31.8119 139.856C31.9184 139.995 32.0358 140.125 32.1629 140.245Z" fill="black"/>
<path d="M31.1989 138.333C31.2227 138.524 31.2645 138.711 31.3236 138.893C31.2222 138.754 31.1321 138.607 31.0539 138.453C30.97 138.29 30.9002 138.119 30.8454 137.944C30.9515 138.084 31.0698 138.214 31.1989 138.333Z" fill="black"/>
<path d="M29.2658 134.508C29.2894 134.699 29.3311 134.888 29.3905 135.071C29.294 134.931 29.209 134.784 29.1361 134.63C29.0508 134.467 28.9802 134.297 28.925 134.121C29.0266 134.26 29.1407 134.39 29.2658 134.508Z" fill="black"/>
<path d="M35.5916 129.675C34.6021 129.349 33.455 130.143 33.0277 131.457C32.9659 131.645 32.9216 131.838 32.8954 132.034C32.6755 132.206 32.4833 132.41 32.3257 132.64C32.2667 132.384 32.177 132.136 32.0586 131.902C32.0154 131.816 31.9671 131.732 31.9162 131.648C32.0606 131.447 32.2317 131.267 32.4249 131.113C32.451 130.917 32.4953 130.723 32.5571 130.535C32.987 129.232 34.1341 128.438 35.1236 128.754C35.4073 128.863 35.658 129.043 35.8515 129.278C36.0449 129.512 36.1744 129.793 36.2275 130.092C36.0546 129.901 35.8357 129.758 35.5916 129.675Z" fill="black"/>
<path d="M31.0031 130.701C31.0152 130.512 31.0083 130.323 30.9827 130.136C31.232 130.381 31.4391 130.666 31.5957 130.978C31.6725 131.132 31.7371 131.292 31.789 131.457C31.5777 131.157 31.3109 130.9 31.0031 130.701Z" fill="black"/>
<path d="M29.6117 127.947C29.6238 127.758 29.617 127.569 29.5914 127.382C29.8395 127.628 30.0464 127.912 30.2044 128.224C30.2812 128.378 30.3458 128.538 30.3977 128.703C30.1857 128.403 29.9191 128.147 29.6117 127.947Z" fill="black"/>
<path d="M33.1294 142.157C33.1539 142.348 33.1964 142.536 33.2566 142.719C33.155 142.579 33.0648 142.431 32.987 142.276C32.9034 142.113 32.8336 141.942 32.7784 141.767C32.885 141.906 33.0023 142.036 33.1294 142.157Z" fill="black"/>
</g>
<path d="M20.862 117.395C20.4111 117.098 20.0475 116.686 19.809 116.201C19.1807 114.957 19.4402 113.559 20.3889 113.078C21.3377 112.597 22.6196 113.216 23.2478 114.46C23.4963 114.94 23.6122 115.478 23.5836 116.018C24.0317 116.319 24.3949 116.731 24.6385 117.213C24.8821 117.695 24.998 118.232 24.9749 118.772C25.4261 119.069 25.7904 119.481 26.0305 119.965C26.1068 120.118 26.1714 120.276 26.2238 120.439C25.8868 119.958 25.4018 119.6 24.8426 119.421C24.7804 119.62 24.6791 119.804 24.5448 119.963C24.4105 120.122 24.2458 120.253 24.0603 120.348C23.8749 120.443 23.6725 120.5 23.4648 120.515C23.2572 120.531 23.0485 120.505 22.8511 120.439C22.6625 120.996 22.6625 121.6 22.8511 122.157C22.7555 122.018 22.6705 121.873 22.5967 121.722C22.3481 121.241 22.2314 120.704 22.2584 120.164C21.8108 119.862 21.448 119.45 21.2045 118.968C20.9609 118.486 20.8448 117.95 20.8671 117.41L20.862 117.395Z" fill="#3F3D56"/>
<path d="M5.57033 99.7468C5.18451 99.5663 4.81144 99.3596 4.45372 99.1283L8.59459 96.0996L3.72628 98.6065C2.74196 97.8234 1.92771 96.8474 1.33335 95.7385C0.738996 94.6295 0.377034 93.4109 0.26962 92.1571L8.54626 92.2437L0.251816 90.854C0.323234 89.5879 0.65446 88.35 1.22486 87.2175C1.79526 86.0851 2.5926 85.0823 3.56722 84.2716C4.54184 83.461 5.67285 82.8598 6.88979 82.5057C8.10672 82.1515 9.38351 82.0519 10.6406 82.2131C11.8977 82.3742 13.1081 82.7927 14.1965 83.4424C15.2849 84.0921 16.228 84.9591 16.9669 85.9894C17.7058 87.0197 18.2248 88.1913 18.4914 89.4311C18.7581 90.6708 18.7668 91.9523 18.5169 93.1956C19.1177 93.4737 19.6873 93.815 20.216 94.2136L15.892 100.23L21.0833 94.967C22.1788 96.0437 22.9887 97.3767 23.4399 98.8454C23.8911 100.314 23.9694 101.872 23.6675 103.379C25.2379 104.111 26.5708 105.27 27.5137 106.724C28.4566 108.178 28.9715 109.869 28.9994 111.602C29.0274 113.335 28.5673 115.042 27.6719 116.526C26.7764 118.01 25.4816 119.211 23.9357 119.994C22.3897 120.776 20.6549 121.107 18.9297 120.949C17.2045 120.791 15.5585 120.151 14.18 119.101C12.8014 118.051 11.7459 116.634 11.1342 115.013C10.5226 113.391 10.3793 111.629 10.721 109.93C8.84663 109.056 7.32001 107.577 6.386 105.731C5.45199 103.885 5.16475 101.778 5.57033 99.7493V99.7468Z" fill="#6C63FF"/>
<path opacity="0.1" d="M22.8536 97.4001C23.7917 99.2475 24.0785 101.358 23.6675 103.389C25.2379 104.121 26.5708 105.28 27.5137 106.734C28.4566 108.189 28.9715 109.879 28.9994 111.612C29.0274 113.346 28.5673 115.052 27.6719 116.536C26.7764 118.02 25.4816 119.222 23.9357 120.004C22.3897 120.786 20.6549 121.117 18.9297 120.959C17.2045 120.802 15.5585 120.161 14.18 119.111C12.8014 118.061 11.7459 116.645 11.1342 115.023C10.5225 113.401 10.3793 111.64 10.721 109.94C8.90743 109.098 22.3881 96.4762 22.8536 97.4001Z" fill="black"/>
<path d="M12.4557 84.033C13.2128 84.033 13.8266 83.4188 13.8266 82.6611C13.8266 81.9035 13.2128 81.2893 12.4557 81.2893C11.6985 81.2893 11.0847 81.9035 11.0847 82.6611C11.0847 83.4188 11.6985 84.033 12.4557 84.033Z" fill="#6C63FF"/>
<path d="M4.45371 84.9136C5.21087 84.9136 5.82467 84.2994 5.82467 83.5418C5.82467 82.7841 5.21087 82.1699 4.45371 82.1699C3.69655 82.1699 3.08275 82.7841 3.08275 83.5418C3.08275 84.2994 3.69655 84.9136 4.45371 84.9136Z" fill="#6C63FF"/>
<path d="M1.37096 97.2295C2.12812 97.2295 2.74192 96.6153 2.74192 95.8577C2.74192 95.1 2.12812 94.4858 1.37096 94.4858C0.6138 94.4858 0 95.1 0 95.8577C0 96.6153 0.6138 97.2295 1.37096 97.2295Z" fill="#6C63FF"/>
<path d="M5.53472 103.381C6.29188 103.381 6.90568 102.767 6.90568 102.009C6.90568 101.252 6.29188 100.637 5.53472 100.637C4.77756 100.637 4.16376 101.252 4.16376 102.009C4.16376 102.767 4.77756 103.381 5.53472 103.381Z" fill="#6C63FF"/>
<path d="M11.2221 116.155C11.9792 116.155 12.593 115.541 12.593 114.783C12.593 114.026 11.9792 113.412 11.2221 113.412C10.4649 113.412 9.85109 114.026 9.85109 114.783C9.85109 115.541 10.4649 116.155 11.2221 116.155Z" fill="#6C63FF"/>
<path opacity="0.1" d="M11.2221 116.155C11.9792 116.155 12.593 115.541 12.593 114.783C12.593 114.026 11.9792 113.412 11.2221 113.412C10.4649 113.412 9.85109 114.026 9.85109 114.783C9.85109 115.541 10.4649 116.155 11.2221 116.155Z" fill="black"/>
<path d="M23.871 101.686C24.6282 101.686 25.242 101.072 25.242 100.314C25.242 99.5566 24.6282 98.9424 23.871 98.9424C23.1138 98.9424 22.5 99.5566 22.5 100.314C22.5 101.072 23.1138 101.686 23.871 101.686Z" fill="#6C63FF"/>
<path opacity="0.1" d="M23.871 101.686C24.6282 101.686 25.242 101.072 25.242 100.314C25.242 99.5566 24.6282 98.9424 23.871 98.9424C23.1138 98.9424 22.5 99.5566 22.5 100.314C22.5 101.072 23.1138 101.686 23.871 101.686Z" fill="black"/>
<path opacity="0.1" d="M25.3335 122.859C26.2441 122.399 26.5188 121.095 25.9872 119.892C26.0152 119.943 26.0432 119.991 26.0686 120.042C26.6969 121.286 26.4374 122.684 25.4861 123.165C24.5349 123.646 23.258 123.027 22.6298 121.783C22.6043 121.732 22.5789 121.681 22.556 121.627C23.2097 122.77 24.4229 123.32 25.3335 122.859Z" fill="black"/>
<path opacity="0.1" d="M26.6842 125.537C27.5947 125.076 27.872 123.77 27.3404 122.569C27.3684 122.617 27.3963 122.668 27.4218 122.719C28.05 123.964 27.7906 125.361 26.8393 125.842C25.888 126.323 24.6112 125.705 23.9829 124.46C23.955 124.409 23.9321 124.356 23.9092 124.305C24.5629 125.453 25.7787 125.997 26.6842 125.537Z" fill="black"/>
<path opacity="0.1" d="M28.0373 128.212C28.9479 127.751 29.2251 126.448 28.691 125.244C28.7215 125.295 28.7469 125.343 28.7749 125.397C29.4032 126.639 29.1412 128.038 28.1925 128.517C27.2437 128.995 25.9643 128.38 25.3361 127.135C25.3081 127.084 25.2852 127.033 25.2623 126.98C25.9135 128.122 27.1267 128.672 28.0373 128.212Z" fill="black"/>
<path opacity="0.1" d="M29.3905 130.889C30.3011 130.428 30.5783 129.125 30.0442 127.921C30.0721 127.97 30.1001 128.021 30.1255 128.072C30.7563 129.316 30.4944 130.713 29.5456 131.194C28.5969 131.675 27.315 131.057 26.6867 129.812C26.6613 129.762 26.6384 129.708 26.6155 129.657C27.2666 130.797 28.4799 131.35 29.3905 130.889Z" fill="black"/>
<path opacity="0.1" d="M30.7436 133.564C31.6542 133.103 31.9289 131.8 31.3973 130.599C31.4253 130.647 31.4533 130.698 31.4787 130.749C32.107 131.994 31.8475 133.391 30.8988 133.872C29.95 134.353 28.6681 133.732 28.0399 132.49C28.0144 132.436 27.9915 132.386 27.9661 132.335C28.6198 133.475 29.833 134.025 30.7436 133.564Z" fill="black"/>
<path opacity="0.1" d="M32.0968 136.242C33.0074 135.781 33.2821 134.478 32.7505 133.274C32.7784 133.325 32.8064 133.373 32.8319 133.424C33.4601 134.669 33.2007 136.066 32.2519 136.547C31.3032 137.028 30.0213 136.41 29.393 135.165C29.3676 135.114 29.3421 135.063 29.3192 135.01C29.9729 136.142 31.1862 136.702 32.0968 136.242Z" fill="black"/>
<path opacity="0.1" d="M33.4499 138.919C34.358 138.458 34.6352 137.153 34.1036 135.951C34.1316 136 34.1596 136.051 34.185 136.102C34.8133 137.346 34.5538 138.743 33.6025 139.224C32.6513 139.706 31.3744 139.084 30.7462 137.842C30.7207 137.789 30.6953 137.738 30.6724 137.687C31.3261 138.827 32.5393 139.38 33.4499 138.919Z" fill="black"/>
<path opacity="0.1" d="M34.8005 141.594C35.7111 141.133 35.9884 139.83 35.4542 138.626C35.4848 138.677 35.5102 138.725 35.5382 138.779C36.1664 140.021 35.9044 141.421 34.9557 141.899C34.007 142.378 32.7276 141.762 32.0993 140.517C32.0713 140.466 32.0485 140.415 32.0256 140.362C32.6792 141.505 33.89 142.055 34.8005 141.594Z" fill="black"/>
<path opacity="0.1" d="M35.6984 143.353C36.609 142.892 36.8837 141.589 36.3521 140.385C36.3801 140.436 36.4081 140.484 36.4335 140.538C37.0617 141.78 36.8023 143.18 35.8536 143.658C34.9048 144.137 33.6229 143.521 32.9946 142.276C32.9692 142.225 32.9438 142.174 32.9209 142.121C33.5669 143.269 34.7802 143.813 35.6984 143.353Z" fill="black"/>
<path d="M11.2449 131.441C11.1037 131.037 11.0181 130.615 10.9906 130.187C10.8965 130.186 10.8036 130.167 10.7175 130.129C10.6314 130.091 10.554 130.036 10.4902 129.966C10.4264 129.897 10.3776 129.816 10.3467 129.727C10.3158 129.638 10.3036 129.544 10.3108 129.45C10.318 129.356 10.3444 129.265 10.3885 129.181C10.4325 129.098 10.4932 129.025 10.5668 128.966C10.6404 128.908 10.7253 128.865 10.8161 128.841C10.907 128.816 11.0019 128.811 11.0949 128.825C11.2475 128.131 11.5524 127.48 11.9875 126.919C12.4225 126.358 12.9769 125.9 13.6104 125.58C13.5285 125.418 13.5143 125.229 13.5711 125.057C13.6278 124.884 13.7509 124.741 13.9131 124.659C14.0753 124.577 14.2635 124.562 14.4362 124.619C14.6088 124.676 14.7519 124.799 14.8339 124.962C14.8636 125.019 14.8842 125.081 14.8949 125.145C15.6475 125.007 16.4223 125.05 17.1548 125.271C17.8873 125.492 18.5566 125.885 19.107 126.417C19.5274 126.348 19.9552 126.336 20.3788 126.382L20.9332 128.906L20.946 126.471C21.5766 126.617 22.1712 126.889 22.6939 127.271C23.2166 127.653 23.6566 128.137 23.9874 128.694C24.3182 129.25 24.5328 129.868 24.6185 130.51C24.7041 131.152 24.659 131.805 24.4857 132.429C24.3125 133.053 24.0148 133.636 23.6105 134.142C23.2062 134.647 22.7038 135.066 22.1335 135.372C21.5631 135.679 20.9367 135.866 20.292 135.924C19.6473 135.981 18.9976 135.908 18.3821 135.707C18.3151 135.825 18.2153 135.922 18.0947 135.985C17.9689 136.048 17.8268 136.071 17.6874 136.051C17.548 136.031 17.4181 135.969 17.3154 135.872C17.2127 135.776 17.1421 135.65 17.1131 135.512C17.0842 135.374 17.0983 135.231 17.1536 135.101C16.9355 134.949 16.7304 134.779 16.5406 134.592C15.5401 134.755 14.514 134.596 13.6093 134.138C12.7046 133.681 11.9678 132.949 11.5044 132.047L14.0861 131.612L11.2449 131.441Z" fill="#6C63FF"/>
<g opacity="0.1">
<path d="M15.2332 132.668C16.187 131.395 16.772 129.919 17.4435 128.489C17.7124 127.9 18.0147 127.328 18.349 126.773L18.8577 126.186C18.9442 126.259 19.0281 126.333 19.1121 126.41C19.5325 126.341 19.9602 126.329 20.3838 126.374L20.9383 128.899L20.946 126.471C21.5766 126.616 22.1712 126.889 22.6939 127.271C23.2166 127.653 23.6566 128.137 23.9874 128.693C24.3182 129.25 24.5328 129.868 24.6185 130.51C24.7041 131.152 24.659 131.805 24.4857 132.429C24.3125 133.053 24.0148 133.635 23.6105 134.141C23.2062 134.647 22.7038 135.066 22.1335 135.372C21.5631 135.678 20.9367 135.866 20.292 135.924C19.6473 135.981 18.9976 135.907 18.3821 135.707C18.3151 135.825 18.2153 135.922 18.0947 135.984C17.9689 136.048 17.8268 136.071 17.6874 136.051C17.548 136.031 17.4181 135.969 17.3154 135.872C17.2127 135.776 17.1421 135.65 17.1131 135.512C17.0842 135.374 17.0983 135.231 17.1536 135.101C16.9355 134.949 16.7304 134.779 16.5406 134.592C15.5608 134.749 14.5564 134.601 13.6638 134.167C14.2642 133.755 14.7941 133.249 15.2332 132.668Z" fill="black"/>
</g>
<path d="M32.1146 127.257C32.0739 127.177 32.0495 127.09 32.0427 127C32.0359 126.91 32.0468 126.82 32.075 126.735C32.1031 126.649 32.1478 126.57 32.2066 126.502C32.2653 126.434 32.3369 126.379 32.4173 126.338C32.5133 126.289 32.6197 126.264 32.7276 126.265C32.9216 125.234 33.4478 124.295 34.2257 123.592C34.0999 123.103 34.0527 122.597 34.0858 122.093L36.6014 121.671L34.157 121.515C34.2013 121.285 34.2625 121.059 34.3402 120.838C34.2441 120.774 34.1662 120.687 34.1138 120.584C34.0526 120.461 34.0295 120.323 34.0474 120.187C34.0652 120.051 34.1233 119.924 34.2141 119.821C34.3048 119.719 34.4242 119.646 34.5568 119.611C34.6894 119.577 34.8292 119.583 34.9583 119.629C35.4075 118.99 36.0078 118.471 36.7057 118.12C37.5277 117.703 38.4525 117.531 39.3694 117.627C40.2862 117.722 41.1561 118.08 41.8748 118.658C42.5935 119.235 43.1305 120.008 43.4213 120.883C43.7122 121.758 43.7446 122.699 43.5147 123.592C43.6342 123.643 43.7367 123.728 43.8101 123.835C43.8835 123.943 43.9247 124.069 43.929 124.199C43.9332 124.329 43.9004 124.458 43.8342 124.57C43.768 124.682 43.6713 124.773 43.5554 124.832C43.4685 124.876 43.3731 124.901 43.2758 124.905C43.1784 124.91 43.0813 124.893 42.9907 124.857C42.7452 125.269 42.4391 125.641 42.0827 125.962C42.3434 126.977 42.2657 128.049 41.8614 129.016L38.4963 128.13L41.5053 129.716C41.0535 130.437 40.4182 131.025 39.6644 131.42C38.9106 131.815 38.0654 132.002 37.2156 131.962C36.3658 131.922 35.5419 131.657 34.8283 131.193C34.1147 130.729 33.5372 130.084 33.1549 129.324C32.8887 128.794 32.7215 128.221 32.6614 127.631C32.546 127.621 32.4351 127.581 32.3393 127.516C32.2436 127.45 32.1662 127.361 32.1146 127.257Z" fill="#6C63FF"/>
<path opacity="0.1" d="M32.1146 127.257C32.0739 127.177 32.0495 127.09 32.0427 127C32.0359 126.91 32.0468 126.82 32.075 126.735C32.1031 126.65 32.1478 126.571 32.2066 126.502C32.2653 126.434 32.3369 126.379 32.4173 126.338C32.5133 126.289 32.6197 126.264 32.7276 126.265C32.9216 125.234 33.4478 124.295 34.2257 123.592C34.2054 123.513 34.1876 123.432 34.1723 123.353C34.2635 123.418 34.3487 123.491 34.4267 123.572C34.8819 124.081 35.116 124.74 35.5636 125.244C36.1245 125.823 36.8786 126.175 37.6824 126.234C38.4785 126.289 39.2783 126.225 40.0555 126.043C40.6964 125.878 41.3576 125.805 42.0191 125.827L42.2073 125.852L42.0903 125.962C42.351 126.977 42.2733 128.049 41.869 129.016L38.4963 128.13L41.5053 129.716C41.0535 130.437 40.4182 131.025 39.6644 131.42C38.9106 131.815 38.0654 132.002 37.2156 131.962C36.3658 131.922 35.5419 131.657 34.8283 131.193C34.1147 130.73 33.5372 130.084 33.1549 129.324C32.8887 128.795 32.7215 128.221 32.6614 127.631C32.546 127.621 32.4351 127.581 32.3393 127.516C32.2436 127.45 32.1662 127.361 32.1146 127.257Z" fill="black"/>
</g>
<path opacity="0.1" d="M88.0951 13.2119C87.0895 13.0209 86.0498 13.1344 85.109 13.5377C84.5446 13.7894 83.9337 13.9194 83.3158 13.9194C82.6979 13.9194 82.087 13.7894 81.5226 13.5377C80.8556 13.2451 80.133 13.1011 79.4048 13.1156C78.6766 13.1301 77.9603 13.3028 77.3054 13.6217C76.9314 13.8194 76.5151 13.9233 76.0922 13.9246C74.3829 13.9246 72.9611 12.2015 72.666 9.92871C73.0069 9.67874 73.2969 9.36604 73.5207 9.00737C74.5228 7.3912 76.0642 6.35278 77.8167 6.35278C79.5692 6.35278 81.0953 7.37084 82.0975 8.97683C82.3968 9.45912 82.8152 9.85621 83.3124 10.1299C83.8095 10.4036 84.3686 10.5447 84.936 10.5395H84.9818C86.3299 10.5319 87.5075 11.6238 88.0951 13.2119Z" fill="#6C63FF"/>
<path opacity="0.1" d="M93.289 6.08544L90.5267 7.83905L92.2029 4.78487C91.7276 4.40586 91.1395 4.19629 90.5318 4.18931H90.4885C90.2969 4.19165 90.1054 4.17717 89.9163 4.14604L88.9777 4.7416L89.3796 4.01115C88.7182 3.78083 88.1454 3.3492 87.7415 2.77675L86.0603 3.8279L87.1184 1.90122C86.1391 0.72282 84.8165 0 83.3641 0C81.6218 0 80.0575 1.03842 79.0656 2.65458C78.7688 3.13732 78.3496 3.53288 77.8506 3.80108C77.3516 4.06929 76.7905 4.2006 76.2244 4.18167H76.1405C74.2176 4.18167 72.6559 6.36286 72.6559 9.05817C72.6559 11.7535 74.2176 13.9321 76.1405 13.9321C76.5635 13.9308 76.9798 13.8269 77.3538 13.6292C78.0086 13.3101 78.7251 13.1375 79.4534 13.1234C80.1817 13.1093 80.9043 13.2542 81.5709 13.5478C82.1355 13.7987 82.7464 13.9283 83.3641 13.9283C83.9819 13.9283 84.5927 13.7987 85.1573 13.5478C85.8189 13.2604 86.5346 13.1189 87.2557 13.133C87.9768 13.147 88.6864 13.3163 89.3363 13.6292C89.7074 13.8216 90.1189 13.9228 90.5369 13.9245C92.4623 13.9245 94.0215 11.7433 94.0215 9.05053C94.0282 8.01651 93.7764 6.99721 93.289 6.08544Z" fill="#6C63FF"/>
<path opacity="0.1" d="M30.6114 48.4723C29.1751 48.2004 27.6904 48.3616 26.3459 48.9355C25.539 49.2934 24.6658 49.4773 23.7832 49.4751C22.9006 49.4729 22.0283 49.2847 21.2232 48.9228C20.2705 48.5048 19.2385 48.299 18.1985 48.3197C17.1585 48.3404 16.1354 48.5869 15.2001 49.0424C14.6652 49.3244 14.0701 49.4728 13.4654 49.4751C11.0236 49.4751 8.99136 47.0139 8.56914 43.7663C9.05707 43.4106 9.47164 42.9637 9.79003 42.4505C11.222 40.142 13.44 38.6582 15.9301 38.6582C18.4202 38.6582 20.6102 40.1242 22.0346 42.4072C22.4627 43.0991 23.0625 43.6684 23.7756 44.0595C24.4888 44.4507 25.291 44.6504 26.1042 44.6393H26.1678C28.0958 44.6367 29.7796 46.1969 30.6114 48.4723Z" fill="#6C63FF"/>
<path opacity="0.1" d="M38.0384 38.2791L34.0909 40.7835L36.4869 36.4237C35.8079 35.8813 34.9673 35.5812 34.0985 35.571H34.0349C33.7607 35.5751 33.4866 35.5546 33.2159 35.51L31.8831 36.3728L32.4579 35.3292C31.5095 34.9976 30.6903 34.3739 30.1179 33.5476L27.7219 35.0747L29.2302 32.3005C27.8287 30.6182 25.9414 29.5874 23.8659 29.5874C21.3758 29.5874 19.1578 31.0687 17.7258 33.3771C17.3017 34.0698 16.7016 34.6376 15.9867 35.0226C15.2717 35.4075 14.4676 35.5959 13.6562 35.5685H13.5214C10.7718 35.5685 8.5437 38.6863 8.5437 42.5346C8.5437 46.3828 10.7718 49.5006 13.5214 49.5006C14.1264 49.499 14.7219 49.3496 15.2561 49.0654C16.1916 48.6103 17.2148 48.3642 18.2547 48.344C19.2947 48.3238 20.3267 48.53 21.2791 48.9483C22.0842 49.3102 22.9565 49.4984 23.8391 49.5006C24.7217 49.5028 25.5949 49.319 26.4018 48.961C27.3472 48.5504 28.3699 48.3481 29.4004 48.3679C30.4308 48.3877 31.445 48.629 32.374 49.0756C32.9032 49.3527 33.4911 49.4985 34.0884 49.5006C36.8379 49.5006 39.066 46.3803 39.066 42.5346C39.0852 41.0523 38.7319 39.589 38.0384 38.2791Z" fill="#6C63FF"/>
<path opacity="0.1" d="M190.248 23.138C191.254 22.9471 192.293 23.0606 193.234 23.4638C193.798 23.7155 194.409 23.8457 195.026 23.8457C195.644 23.8457 196.254 23.7155 196.818 23.4638C197.485 23.1712 198.208 23.0272 198.936 23.0417C199.664 23.0562 200.38 23.2289 201.035 23.5478C201.409 23.7451 201.826 23.8491 202.249 23.8506C203.958 23.8506 205.382 22.1276 205.677 19.8548C205.336 19.6055 205.046 19.2926 204.823 18.9334C203.826 17.3122 202.266 16.2661 200.519 16.2661C198.772 16.2661 197.243 17.2842 196.241 18.8902C195.942 19.3746 195.523 19.7737 195.025 20.0488C194.527 20.3239 193.966 20.4657 193.397 20.4605H193.354C192.001 20.458 190.821 21.5498 190.248 23.138Z" fill="#6C63FF"/>
<path opacity="0.1" d="M185.039 16.0114L187.801 17.76L186.123 14.7058C186.598 14.3271 187.186 14.1176 187.794 14.1102H187.84C188.031 14.1124 188.223 14.0979 188.412 14.0669L189.348 14.6625L188.946 13.9321C189.612 13.7056 190.19 13.2756 190.599 12.7027L192.275 13.7666L191.215 11.8399C192.197 10.6615 193.504 9.93872 194.972 9.93872C196.714 9.93872 198.278 10.9771 199.27 12.5933C199.567 13.0762 199.986 13.4719 200.485 13.7402C200.984 14.0084 201.545 14.1396 202.111 14.1204H202.203C204.128 14.1204 205.687 16.3016 205.687 18.9969C205.687 21.6922 204.128 23.8708 202.203 23.8708C201.78 23.869 201.364 23.7651 200.99 23.568C200.335 23.2488 199.618 23.0762 198.89 23.0621C198.162 23.0481 197.439 23.1929 196.772 23.4865C196.208 23.7373 195.598 23.8669 194.98 23.8669C194.363 23.8669 193.753 23.7373 193.189 23.4865C192.527 23.1991 191.81 23.0575 191.089 23.0716C190.367 23.0857 189.657 23.2549 189.007 23.568C188.636 23.7606 188.224 23.8618 187.806 23.8632C185.884 23.8632 184.322 21.682 184.322 18.9893C184.308 17.9522 184.555 16.9284 185.039 16.0114Z" fill="#6C63FF"/>
<path opacity="0.1" d="M156.587 197.727C172.742 197.727 185.838 195.448 185.838 192.637C185.838 189.826 172.742 187.547 156.587 187.547C140.433 187.547 127.337 189.826 127.337 192.637C127.337 195.448 140.433 197.727 156.587 197.727Z" fill="#6C63FF"/>
<path d="M141.278 168.458L95.9546 167.875L96.0894 166.712L98.2794 147.524H138.083L141.011 166.712L141.234 168.168L141.278 168.458Z" fill="#D0D2D5"/>
<path opacity="0.1" d="M141.234 168.168H118.617L95.9546 167.875L96.0894 166.712H141.011L141.234 168.168Z" fill="black"/>
<path d="M148.542 167.005H88.4003V168.458H148.542V167.005Z" fill="#D0D2D5"/>
<path d="M205.921 32.28C205.925 31.2772 205.53 30.3139 204.824 29.6019C204.119 28.8899 203.159 28.4874 202.157 28.4827H34.2028C33.7061 28.485 33.2148 28.5852 32.7568 28.7776C32.2988 28.9699 31.8831 29.2507 31.5336 29.6037C31.184 29.9568 30.9074 30.3754 30.7195 30.8354C30.5316 31.2955 30.4361 31.7881 30.4384 32.2851V134.155H205.921V32.28Z" fill="#3F3D56"/>
<path d="M30.4384 133.136V145.068C30.4384 146.067 30.835 147.025 31.541 147.732C32.2469 148.438 33.2044 148.835 34.2028 148.835H202.157C203.155 148.835 204.113 148.438 204.819 147.732C205.525 147.025 205.921 146.067 205.921 145.068V133.136H30.4384Z" fill="#D0D2D5"/>
<path d="M199.53 34.8711H37.7027V126.448H199.53V34.8711Z" fill="white"/>
<path d="M119.052 144.307C119.647 144.308 120.233 144.173 120.768 143.913C121.302 143.654 121.771 143.276 122.138 142.808C122.249 142.666 122.351 142.516 122.443 142.36L120.289 141.996L122.616 142.011C122.839 141.526 122.961 141 122.973 140.465C122.986 139.931 122.889 139.399 122.69 138.904L119.569 140.522L122.448 138.405C122.178 137.94 121.814 137.535 121.381 137.217C120.948 136.898 120.454 136.672 119.93 136.552C119.405 136.432 118.862 136.422 118.334 136.521C117.805 136.621 117.303 136.828 116.858 137.13C116.412 137.431 116.034 137.822 115.746 138.276C115.458 138.73 115.266 139.239 115.183 139.771C115.1 140.302 115.127 140.845 115.262 141.366C115.397 141.887 115.638 142.374 115.97 142.798C116.335 143.267 116.803 143.647 117.337 143.908C117.871 144.17 118.458 144.306 119.052 144.307Z" fill="#6C63FF"/>
<path opacity="0.1" d="M122.974 148.833L141.056 167.005L138.281 148.833H122.974Z" fill="black"/>
<path opacity="0.1" d="M199.578 34.8811H37.5755V40.231H199.578V34.8811Z" fill="#444053"/>
<path opacity="0.3" d="M142.486 35.8127H93.9706C93.8892 35.8127 93.8231 35.8788 93.8231 35.9604V38.9204C93.8231 39.0019 93.8892 39.068 93.9706 39.068H142.486C142.567 39.068 142.633 39.0019 142.633 38.9204V35.9604C142.633 35.8788 142.567 35.8127 142.486 35.8127Z" fill="#6C63FF"/>
<path d="M141.184 37.7775H141.064L141.021 37.7393C141.169 37.5613 141.25 37.3371 141.25 37.1056C141.248 36.9155 141.19 36.7301 141.084 36.5729C140.977 36.4156 140.826 36.2935 140.65 36.2219C140.474 36.1504 140.281 36.1326 140.095 36.1707C139.909 36.2089 139.738 36.3014 139.605 36.4365C139.471 36.5716 139.381 36.7433 139.344 36.9299C139.308 37.1164 139.328 37.3096 139.401 37.4849C139.475 37.6602 139.599 37.8098 139.757 37.9149C139.915 38.0199 140.101 38.0757 140.291 38.0753C140.522 38.0744 140.747 37.9925 140.924 37.8436L140.967 37.8818V38.0014L141.713 38.7472L141.934 38.5232L141.184 37.7775ZM140.291 37.7775C140.158 37.778 140.028 37.739 139.917 37.6655C139.806 37.5919 139.72 37.4872 139.669 37.3644C139.617 37.2417 139.604 37.1065 139.629 36.976C139.655 36.8455 139.719 36.7256 139.813 36.6313C139.906 36.5371 140.026 36.4729 140.156 36.4467C140.287 36.4206 140.422 36.4338 140.545 36.4845C140.667 36.5353 140.773 36.6214 140.846 36.732C140.92 36.8425 140.96 36.9725 140.96 37.1056C140.96 37.1938 140.944 37.2812 140.91 37.3629C140.877 37.4445 140.828 37.5188 140.765 37.5813C140.703 37.6438 140.629 37.6933 140.548 37.727C140.466 37.7606 140.379 37.7778 140.291 37.7775Z" fill="#3F3D56"/>
<path opacity="0.8" d="M40.4879 38.5359C41.0287 38.5359 41.4671 38.0972 41.4671 37.5561C41.4671 37.0149 41.0287 36.5762 40.4879 36.5762C39.947 36.5762 39.5086 37.0149 39.5086 37.5561C39.5086 38.0972 39.947 38.5359 40.4879 38.5359Z" fill="#FA5959"/>
<path opacity="0.8" d="M43.1815 38.5359C43.7223 38.5359 44.1607 38.0972 44.1607 37.5561C44.1607 37.0149 43.7223 36.5762 43.1815 36.5762C42.6406 36.5762 42.2022 37.0149 42.2022 37.5561C42.2022 38.0972 42.6406 38.5359 43.1815 38.5359Z" fill="#FED253"/>
<path opacity="0.8" d="M45.8776 38.5359C46.4184 38.5359 46.8569 38.0972 46.8569 37.5561C46.8569 37.0149 46.4184 36.5762 45.8776 36.5762C45.3368 36.5762 44.8983 37.0149 44.8983 37.5561C44.8983 38.0972 45.3368 38.5359 45.8776 38.5359Z" fill="#8CCF4D"/>
<path d="M127.189 74.1655C124.969 71.2131 121.751 69.3501 118.17 69.3501C114.588 69.3501 111.371 71.2131 109.15 74.1655C109.641 75.3704 110.368 76.465 111.287 77.3851C112.423 78.5214 113.822 79.3587 115.36 79.8225C116.898 80.2864 118.527 80.3623 120.101 80.0436C121.675 79.7248 123.147 79.0213 124.383 77.9957C125.62 76.9701 126.584 75.6543 127.189 74.1655Z" fill="#6C63FF"/>
<path d="M107.53 75.6391C107.67 75.7402 107.82 75.8256 107.978 75.8936C109.682 79.3423 113.212 81.9816 117.264 82.2031V98.5556C114.199 98.3724 111.745 96.8275 109.682 94.4172C109.504 94.5521 109.372 94.6743 109.25 94.7888C109.078 94.9511 108.959 95.1603 108.906 95.3903C108.853 95.6203 108.869 95.8608 108.952 96.0817C109.064 96.3859 109.093 96.7144 109.036 97.0336C108.979 97.3527 108.839 97.6509 108.629 97.8977C108.419 98.1446 108.147 98.331 107.841 98.438C107.535 98.545 107.207 98.5687 106.889 98.5067C106.571 98.4446 106.275 98.2991 106.032 98.0849C105.789 97.8708 105.607 97.5958 105.505 97.2881C105.403 96.9804 105.384 96.6512 105.452 96.3341C105.519 96.017 105.669 95.7234 105.887 95.4836C105.953 95.4116 106.024 95.3451 106.101 95.2851C106.145 95.2448 106.193 95.2097 106.246 95.1807C106.525 94.1678 107.189 93.2541 108.268 92.4167C107.054 90.3411 106.312 88.0237 106.093 85.6288C105.936 85.6303 105.779 85.6405 105.623 85.6594C105.41 85.6879 105.21 85.7741 105.044 85.9088C104.877 86.0435 104.751 86.2213 104.679 86.4229C104.561 86.7355 104.361 87.01 104.099 87.2166C103.836 87.4232 103.523 87.5541 103.191 87.5951C102.86 87.6361 102.524 87.5856 102.22 87.4491C101.915 87.3126 101.653 87.0953 101.463 86.8207C101.273 86.5461 101.162 86.2248 101.142 85.8914C101.121 85.5581 101.192 85.2255 101.347 84.9297C101.502 84.6339 101.735 84.3861 102.02 84.2133C102.306 84.0404 102.633 83.949 102.967 83.949C103.041 83.9503 103.115 83.9554 103.188 83.9643C103.462 83.7676 103.765 83.6163 104.086 83.5164C104.714 83.3198 105.367 83.2144 106.024 83.2033C106.089 81.5054 106.41 79.8271 106.976 78.225C106.565 77.9913 106.177 77.7185 105.818 77.4105C105.469 77.098 105.182 76.7213 104.974 76.3009C104.864 76.0884 104.695 75.9118 104.488 75.7918C104.329 75.6959 104.183 75.5786 104.056 75.4432C103.83 75.1992 103.674 74.8982 103.607 74.5725C103.539 74.2467 103.561 73.9087 103.672 73.5948C103.782 73.2809 103.976 73.0031 104.232 72.7913C104.488 72.5795 104.798 72.4417 105.127 72.3929C105.455 72.344 105.791 72.3859 106.098 72.5141C106.405 72.6422 106.671 72.8517 106.868 73.12C107.064 73.3884 107.184 73.7053 107.214 74.0366C107.243 74.368 107.182 74.7012 107.037 75.0003C107.151 75.2479 107.319 75.4664 107.53 75.6391Z" fill="#6C63FF"/>
<path d="M173.214 189.669C173.067 189.435 172.88 189.227 172.662 189.056C171.551 188.005 171.034 186.462 170.76 184.95C170.485 183.439 170.406 181.896 169.966 180.418C169.727 179.659 169.427 178.921 169.071 178.211C168.816 177.666 168.496 176.6 168.031 176.218C167.939 176.139 167.829 176.085 167.71 176.063C167.49 175.595 167.177 175.178 166.789 174.836C166.062 174.177 165.174 173.653 164.688 172.8C164.555 172.504 164.39 172.224 164.197 171.963C163.869 171.601 163.35 171.454 163.048 171.072C162.654 170.578 162.743 169.87 162.793 169.242C162.844 168.613 162.793 167.86 162.249 167.529C161.924 167.328 161.504 167.348 161.166 167.17C160.657 166.916 160.456 166.274 160.466 165.702C160.476 165.129 160.654 164.571 160.7 163.999C160.843 162.177 159.642 160.364 160.105 158.598C160.28 157.929 160.682 157.348 160.98 156.725C161.084 156.517 161.169 156.301 161.234 156.078C162.028 156.393 162.862 156.595 163.712 156.676C162.31 153.531 162.666 149.876 162.013 146.496L162.096 146.381C162.757 145.51 163.132 144.456 163.17 143.363C163.17 142.105 162.582 140.93 162.318 139.698C162.091 138.652 162.102 137.557 161.809 136.529C161.606 135.89 161.337 135.274 161.005 134.691C160.688 134.103 160.355 133.523 160.006 132.953C159.68 131.874 159.354 130.795 159.026 129.716C158.569 128.201 158.098 126.662 157.208 125.353C156.882 124.875 156.783 123.903 156.282 123.612C155.875 123.402 155.414 123.321 154.959 123.381C154.252 122.984 153.632 122.411 153.543 121.627C153.534 121.456 153.551 121.284 153.593 121.118H153.68C154.799 121.016 155.366 120.029 155.949 119.164C156.89 117.764 156.531 115.87 155.949 114.277C155.804 113.774 155.543 113.313 155.186 112.931C154.369 112.167 153.077 112.335 152.024 111.966C151.671 111.844 151.34 111.658 150.979 111.571C150.279 111.409 149.547 111.638 148.906 111.961C148.265 112.284 147.667 112.701 146.996 112.956C146.324 113.21 145.495 113.412 145.33 114.101C145.283 114.334 145.303 114.574 145.386 114.796C145.54 115.239 145.812 115.631 146.171 115.931C145.886 116.521 145.731 117.166 145.718 117.821C145.705 118.477 145.835 119.127 146.098 119.728C146.361 120.328 146.751 120.865 147.241 121.3C147.731 121.735 148.309 122.059 148.936 122.248C149.13 122.559 149.31 122.874 149.475 123.198C149.771 123.768 150.02 124.44 149.918 125.05C149.734 125.246 149.564 125.454 149.409 125.674C148.679 126.692 148.265 127.886 147.883 129.077C147.371 130.598 146.96 132.151 146.655 133.727C146.034 135.048 145.276 136.31 144.826 137.697C144.02 137.698 143.217 137.59 142.44 137.377L140.293 136.89C139.546 136.72 138.767 136.537 138.182 136.043C137.872 135.788 137.63 135.45 137.315 135.198C136.999 134.946 136.366 134.651 136.02 134.859C135.957 134.898 135.898 134.943 135.845 134.994C135.529 134.356 135.229 133.722 134.863 133.103C134.336 132.238 133.553 131.446 132.561 131.281C131.955 131.183 131.335 131.328 130.834 131.683C130.254 132.095 129.89 132.956 130.325 133.536C130.434 133.665 130.552 133.786 130.679 133.897C130.973 134.237 131.236 134.602 131.465 134.989C132.285 136.141 133.511 136.938 134.896 137.219L134.807 137.473C134.626 138.003 134.242 138.642 134.339 139.191L143.887 142.462C144.5 142.711 145.15 142.854 145.81 142.887C146.068 142.885 146.324 142.851 146.573 142.785V143.274V143.294C146.599 146.651 146.065 149.985 145.965 153.34C145.948 153.953 145.965 154.612 146.352 155.091C146.784 155.615 147.553 155.719 148.222 155.6C148.383 155.573 148.54 155.537 148.695 155.493C148.921 156.337 149.084 157.197 149.183 158.066L149.814 162.612C149.895 163.077 149.928 163.55 149.913 164.022C149.839 165.088 149.277 166.043 148.87 167.028C148.463 168.013 148.222 169.191 148.756 170.112C148.924 170.397 149.155 170.639 149.305 170.934C149.496 171.391 149.583 171.885 149.559 172.38C149.598 173.751 149.636 175.124 149.671 176.498C149.56 176.48 149.447 176.502 149.351 176.562C148.822 176.974 148.88 178.936 148.842 179.545C148.801 180.563 148.842 181.601 148.786 182.629C148.72 184.015 148.497 185.389 148.122 186.724C148.031 187.159 147.83 187.562 147.54 187.898C147.242 188.157 146.888 188.341 146.505 188.435C145.237 188.832 143.912 189.013 142.585 188.969C142.048 188.951 141.489 188.901 140.99 189.104C140.492 189.308 140.09 189.868 140.27 190.377C140.426 190.804 140.896 191.008 141.321 191.168C142.291 191.51 143.228 191.941 144.119 192.456C144.462 192.69 144.823 192.895 145.2 193.069C145.561 193.199 145.934 193.291 146.314 193.344L150.824 194.123C151.747 194.281 152.858 194.378 153.446 193.614C153.764 193.202 153.81 192.642 153.794 192.118C153.769 191.1 153.565 190.064 153.698 189.046C153.798 188.444 153.957 187.853 154.171 187.282C154.62 185.946 155.071 184.612 155.524 183.278C155.977 181.94 156.435 180.588 156.61 179.183C156.674 178.674 156.669 178.094 156.279 177.776C156.181 177.695 156.067 177.636 155.944 177.603C155.928 176.376 155.768 175.147 155.837 173.92C155.855 173.614 155.885 173.309 155.911 173.001C156.146 173.225 156.357 173.474 156.539 173.744C156.974 174.426 157.134 175.327 157.798 175.78C158.363 176.167 159.199 176.147 159.596 176.707C159.724 176.922 159.82 177.154 159.881 177.396C160.111 177.997 160.457 178.546 160.898 179.013C161.05 179.571 161.261 180.112 161.527 180.626C161.901 181.419 162.275 182.208 162.646 182.996C163.028 183.846 163.452 184.676 163.918 185.482C164.273 185.99 164.56 186.543 164.77 187.127C165.128 188.384 164.543 189.763 163.618 190.69C162.692 191.616 161.471 192.148 160.268 192.644C160.141 192.687 160.025 192.757 159.927 192.848C159.823 192.972 159.767 193.129 159.772 193.291C159.772 193.879 160.255 194.383 160.809 194.563C161.376 194.716 161.97 194.738 162.547 194.627C165.797 194.233 169.038 193.439 171.912 191.858C172.342 191.654 172.723 191.36 173.029 190.995C173.176 190.812 173.272 190.591 173.304 190.358C173.337 190.124 173.306 189.886 173.214 189.669Z" fill="url(#paint0_linear_217_1591)"/>
<path d="M159.477 132.594C160.019 133.427 160.528 134.281 161.003 135.155C161.335 135.733 161.606 136.344 161.809 136.98C162.104 137.998 162.096 139.084 162.318 140.123C162.572 141.345 163.167 142.51 163.167 143.762C163.128 144.847 162.753 145.893 162.094 146.756C161.436 147.61 160.684 148.387 159.851 149.072C157.93 144.093 156.857 138.827 156.676 133.493C156.651 132.755 156.646 131.994 156.915 131.304C157.081 130.871 157.874 129.685 158.385 130.151C158.571 130.322 158.619 131.09 158.734 131.347C158.948 131.782 159.197 132.199 159.477 132.594Z" fill="#2F2E41"/>
<path opacity="0.1" d="M159.477 132.594C160.019 133.427 160.528 134.281 161.003 135.155C161.335 135.733 161.606 136.344 161.809 136.98C162.104 137.998 162.096 139.084 162.318 140.123C162.572 141.345 163.167 142.51 163.167 143.762C163.128 144.847 162.753 145.893 162.094 146.756C161.436 147.61 160.684 148.387 159.851 149.072C157.93 144.093 156.857 138.827 156.676 133.493C156.651 132.755 156.646 131.994 156.915 131.304C157.081 130.871 157.874 129.685 158.385 130.151C158.571 130.322 158.619 131.09 158.734 131.347C158.948 131.782 159.197 132.199 159.477 132.594Z" fill="black"/>
<path d="M92.4191 97.8709C90.4071 99.8816 90.1655 100.767 88.9573 101.167C87.7492 101.566 83.4023 103.819 84.7681 106.316L88.441 108.744L88.5478 108.815L89.1099 110.505L83.5549 120.401C83.5549 120.401 74.3982 116.211 73.5003 122.409C72.6025 128.606 73.1722 130.299 72.9306 133.607C72.6889 136.916 73.0094 137.873 72.2031 137.873C71.3968 137.873 71.0789 135.699 71.0789 135.699C71.0789 135.699 71.028 135.6 70.939 135.414C69.741 132.923 61.6093 114.631 74.6347 102.058C74.6347 102.058 80.668 101.661 82.1203 94.7379C83.1225 89.953 86.6275 90.3653 88.9573 91.3401C89.7146 91.6372 90.4202 92.0521 91.0481 92.5694C91.6132 93.1047 92.1158 93.7024 92.5463 94.351C93.2101 95.3996 93.5713 96.7154 92.4191 97.8709Z" fill="#D0D2D5"/>
<path opacity="0.1" d="M88.5478 108.815L89.11 110.505L83.5549 120.401C83.5549 120.401 74.3982 116.211 73.5003 122.409C72.6025 128.606 73.1722 130.299 72.9306 133.607C72.6889 136.916 73.0094 137.873 72.2031 137.873C71.3968 137.873 71.0789 135.699 71.0789 135.699C71.0789 135.699 71.028 135.6 70.939 135.414C70.5346 132.32 68.4845 114.216 75.9167 115.178C75.9167 115.178 81.9474 117.998 82.9114 116.873C83.6744 115.982 87.0624 110.859 88.441 108.757L88.5478 108.815Z" fill="black"/>
<path opacity="0.1" d="M92.5463 94.3357L88.8734 98.5123C88.8734 98.5123 84.6079 104.224 83.7228 103.982C83.4577 103.924 83.1877 103.892 82.9165 103.888C82.6212 103.865 82.3384 103.759 82.1008 103.582C81.8632 103.405 81.6806 103.165 81.5741 102.888C81.4676 102.612 81.4416 102.311 81.4991 102.02C81.5567 101.729 81.6953 101.461 81.8991 101.246C83.354 99.7187 86.0348 96.8198 86.2103 96.1759C86.3858 95.532 88.0925 92.7094 88.9472 91.3274C89.7044 91.6245 90.41 92.0394 91.0379 92.5567C91.6064 93.0907 92.1124 93.6875 92.5463 94.3357Z" fill="black"/>
<path d="M196.465 154.424C195.841 155.671 192.649 160.349 191.253 162.393L190.599 163.355C190.599 163.355 190.345 165.045 186.176 162.95C182.007 160.856 84.0585 119.5 84.0585 119.5L83.3947 117.504L88.2274 110.263L195.582 151.767C195.582 151.767 197.271 152.813 196.465 154.424Z" fill="#454B69"/>
<path opacity="0.1" d="M191.253 162.393L190.599 163.355C190.599 163.355 190.345 165.045 186.176 162.95C182.007 160.856 84.0585 119.5 84.0585 119.5L83.3947 117.504L191.253 162.393Z" fill="black"/>
<path d="M132.172 135.379C131.177 135.216 130.073 135.295 129.3 135.941C128.833 136.337 128.537 136.899 128.476 137.509C128.41 138.214 128.82 139.051 129.527 139.105C129.697 139.107 129.867 139.096 130.035 139.072C130.482 139.07 130.928 139.107 131.368 139.184C132.234 139.265 133.108 139.138 133.914 138.812C134.721 138.486 135.438 137.971 136.005 137.31C136.613 136.547 135.812 136.216 135.094 136.063C134.113 135.855 133.154 135.537 132.172 135.379Z" fill="#FBBEBE"/>
<path d="M149.183 158.364L149.814 162.849C149.894 163.311 149.926 163.781 149.91 164.251C149.837 165.307 149.275 166.254 148.87 167.231C148.466 168.209 148.219 169.379 148.756 170.286C148.921 170.568 149.152 170.81 149.303 171.102C149.493 171.555 149.58 172.045 149.557 172.535L149.73 178.898C151.693 179.032 153.664 179.021 155.626 178.865C155.702 178.869 155.778 178.845 155.839 178.799C155.891 178.733 155.917 178.651 155.913 178.567C156 177.078 155.74 175.587 155.824 174.098C155.855 173.553 155.931 173.011 155.941 172.464C155.972 170.247 154.878 168.076 155.209 165.885C155.312 165.332 155.448 164.786 155.616 164.248C156.661 160.431 156.44 156.42 156.208 152.477C156.212 152.414 156.194 152.351 156.157 152.299C156.12 152.261 156.072 152.236 156.02 152.225C154.907 151.891 153.73 151.83 152.589 152.047C151.448 152.264 150.375 152.753 149.463 153.472C149.186 153.696 148.486 153.913 148.303 154.18C148.049 154.551 148.382 154.923 148.529 155.318C148.856 156.307 149.075 157.328 149.183 158.364Z" fill="#3F3D56"/>
<path opacity="0.1" d="M149.183 158.364L149.814 162.849C149.894 163.311 149.926 163.781 149.91 164.251C149.837 165.307 149.275 166.254 148.87 167.231C148.466 168.209 148.219 169.379 148.756 170.286C148.921 170.568 149.152 170.81 149.303 171.102C149.493 171.555 149.58 172.045 149.557 172.535L149.73 178.898C151.693 179.032 153.664 179.021 155.626 178.865C155.702 178.869 155.778 178.845 155.839 178.799C155.891 178.733 155.917 178.651 155.913 178.567C156 177.078 155.74 175.587 155.824 174.098C155.855 173.553 155.931 173.011 155.941 172.464C155.972 170.247 154.878 168.076 155.209 165.885C155.312 165.332 155.448 164.786 155.616 164.248C156.661 160.431 156.44 156.42 156.208 152.477C156.212 152.414 156.194 152.351 156.157 152.299C156.12 152.261 156.072 152.236 156.02 152.225C154.907 151.891 153.73 151.83 152.589 152.047C151.448 152.264 150.375 152.753 149.463 153.472C149.186 153.696 148.486 153.913 148.303 154.18C148.049 154.551 148.382 154.923 148.529 155.318C148.856 156.307 149.075 157.328 149.183 158.364Z" fill="black"/>
<path d="M160.977 157.012C160.68 157.631 160.28 158.206 160.102 158.87C159.639 160.624 160.837 162.434 160.695 164.23C160.649 164.798 160.474 165.35 160.461 165.918C160.448 166.485 160.657 167.117 161.16 167.379C161.499 167.552 161.924 167.534 162.241 167.733C162.778 168.061 162.839 168.807 162.786 169.433C162.732 170.059 162.643 170.759 163.04 171.247C163.343 171.627 163.862 171.774 164.187 172.133C164.381 172.391 164.546 172.669 164.678 172.963C165.164 173.813 166.052 174.332 166.779 174.999C167.507 175.666 168.122 176.643 167.797 177.567C167.557 178.244 166.886 178.661 166.24 178.98C165.061 179.563 163.817 180.003 162.534 180.29C162.396 180.332 162.251 180.34 162.109 180.313C161.966 180.261 161.838 180.173 161.738 180.059C160.988 179.323 160.212 178.552 159.866 177.562C159.804 177.322 159.708 177.092 159.581 176.88C159.184 176.322 158.347 176.343 157.783 175.958C157.121 175.508 156.961 174.615 156.529 173.94C156.096 173.266 155.463 172.864 155.003 172.271C154.224 171.283 154.033 169.965 153.476 168.837C153.24 168.359 152.937 167.911 152.749 167.412C152.559 166.814 152.442 166.195 152.401 165.569C152.042 162.596 151.129 159.603 151.704 156.661C151.831 156.015 152.027 155.389 152.108 154.722C152.248 153.569 152.027 152.388 152.197 151.238C152.201 151.093 152.238 150.951 152.304 150.823C152.371 150.695 152.466 150.583 152.581 150.497C152.719 150.435 152.868 150.405 153.019 150.408C154.526 150.327 156.038 150.361 157.541 150.51C158.304 150.583 159.159 150.739 159.617 151.362C160.006 151.897 159.985 152.612 160.11 153.261C160.265 154.06 160.67 154.495 161.094 155.121C161.519 155.747 161.29 156.366 160.977 157.012Z" fill="#3F3D56"/>
<path d="M155.109 177.694C155.511 177.694 155.956 177.669 156.267 177.923C156.653 178.242 156.658 178.824 156.597 179.321C156.419 180.715 155.964 182.057 155.509 183.393L154.156 187.366C153.941 187.933 153.783 188.519 153.682 189.117C153.55 190.135 153.754 191.153 153.779 192.171C153.779 192.68 153.746 193.245 153.428 193.655C152.853 194.396 151.732 194.309 150.808 194.164L146.304 193.4C145.924 193.35 145.55 193.258 145.19 193.128C144.814 192.954 144.452 192.751 144.109 192.52C143.217 192.01 142.281 191.584 141.311 191.247C140.889 191.089 140.415 190.888 140.263 190.463C140.082 189.954 140.484 189.394 140.983 189.191C141.481 188.987 142.038 189.038 142.577 189.053C143.903 189.096 145.227 188.917 146.494 188.524C146.876 188.43 147.23 188.247 147.527 187.989C147.829 187.65 148.034 187.236 148.122 186.791C148.506 185.464 148.735 184.098 148.804 182.718C148.857 181.7 148.822 180.682 148.862 179.664C148.888 179.061 148.829 177.119 149.358 176.704C149.763 176.394 151.426 177.251 151.973 177.376C153.001 177.612 154.055 177.719 155.109 177.694Z" fill="#2F2E41"/>
<path d="M169.948 180.525C170.388 181.983 170.457 183.525 170.742 185.024C171.027 186.523 171.53 188.053 172.642 189.097C172.858 189.268 173.045 189.475 173.194 189.707C173.288 189.925 173.32 190.165 173.286 190.4C173.252 190.635 173.154 190.856 173.003 191.039C172.696 191.401 172.315 191.693 171.887 191.896C169.015 193.464 165.782 194.256 162.524 194.648C161.948 194.756 161.355 194.734 160.789 194.584C160.235 194.396 159.744 193.897 159.754 193.311C159.749 193.151 159.803 192.994 159.907 192.871C160.005 192.781 160.123 192.712 160.25 192.67C161.45 192.176 162.669 191.639 163.597 190.728C164.526 189.817 165.108 188.437 164.749 187.2C164.537 186.621 164.249 186.073 163.892 185.569C163.427 184.769 163.003 183.946 162.62 183.103L161.501 180.754C161.173 180.066 160.843 179.359 160.787 178.6C162.192 178.663 163.596 178.438 164.912 177.939C165.526 177.688 166.099 177.345 166.609 176.921C167.041 176.559 167.435 175.885 168.018 176.356C168.486 176.732 168.781 177.794 169.056 178.331C169.412 179.036 169.711 179.77 169.948 180.525Z" fill="#2F2E41"/>
<path d="M153.548 122.192C153.66 123.17 154.606 123.814 155.509 124.201L149.793 126.025C150.162 125.318 149.865 124.453 149.498 123.735C149.2 123.167 148.86 122.621 148.481 122.103C148.425 122.025 148.361 121.925 148.402 121.834C148.438 121.774 148.495 121.729 148.562 121.709C149.737 121.185 150.948 120.642 152.233 120.452C152.604 120.398 153.306 120.251 153.583 120.627C153.861 121.004 153.494 121.742 153.548 122.192Z" fill="#FBBEBE"/>
<path opacity="0.1" d="M153.548 122.192C153.66 123.17 154.606 123.814 155.509 124.201L149.793 126.025C150.162 125.318 149.865 124.453 149.498 123.735C149.2 123.167 148.86 122.621 148.481 122.103C148.425 122.025 148.361 121.925 148.402 121.834C148.438 121.774 148.495 121.729 148.562 121.709C149.737 121.185 150.948 120.642 152.233 120.452C152.604 120.398 153.306 120.251 153.583 120.627C153.861 121.004 153.494 121.742 153.548 122.192Z" fill="black"/>
<path d="M150.226 122.984C152.701 122.984 154.708 120.976 154.708 118.499C154.708 116.023 152.701 114.015 150.226 114.015C147.751 114.015 145.744 116.023 145.744 118.499C145.744 120.976 147.751 122.984 150.226 122.984Z" fill="#FBBEBE"/>
<path d="M146.342 155.404C146.777 155.926 147.542 156.028 148.211 155.913C149.776 155.659 151.055 154.506 152.586 154.091C154.463 153.582 156.45 154.236 158.223 155.038C159.996 155.839 161.758 156.819 163.696 156.957C161.944 153.047 162.946 148.344 161.27 144.401C160.86 143.437 160.288 142.508 160.196 141.464C160.082 140.169 160.728 138.919 160.827 137.631C160.919 136.483 160.573 135.341 160.242 134.246C159.834 132.902 159.425 131.559 159.016 130.215C158.558 128.711 158.088 127.181 157.2 125.888C156.872 125.412 156.773 124.447 156.274 124.16C155.186 123.531 153.535 124.323 152.355 124.366C151.175 124.409 150.099 125.249 149.409 126.199C148.679 127.201 148.265 128.395 147.883 129.576C147.276 131.334 146.822 133.142 146.528 134.979C146.489 135.254 146.456 135.529 146.431 135.806C146.177 138.42 146.548 141.049 146.568 143.676V143.694C146.594 147.025 146.06 150.337 145.96 153.666C145.95 154.274 145.965 154.938 146.342 155.404Z" fill="#2F2E41"/>
<path opacity="0.1" d="M146.576 143.679C147.453 143.457 148.247 142.89 148.929 142.269C149.519 141.74 150.043 141.142 150.49 140.487C151.053 139.607 151.505 138.66 151.836 137.669C152.778 135.019 153.376 132.259 153.616 129.456C153.682 128.693 153.703 127.873 153.248 127.267C152.992 126.939 152.633 126.707 152.229 126.609C151.825 126.511 151.399 126.553 151.022 126.728C150.422 127.021 150.033 127.614 149.671 128.181C148.957 129.306 148.237 130.446 147.776 131.699C147.573 132.253 147.423 132.824 147.224 133.381C147.023 133.931 146.79 134.469 146.528 134.992C146.489 135.267 146.456 135.542 146.431 135.819C146.194 138.433 146.556 141.052 146.576 143.679Z" fill="black"/>
<path d="M153.235 126.776C153.69 127.382 153.67 128.209 153.606 128.963C153.366 131.765 152.768 134.525 151.826 137.176C151.498 138.175 151.046 139.129 150.48 140.016C150.032 140.67 149.508 141.268 148.918 141.798C148.054 142.587 147.001 143.292 145.828 143.302C145.168 143.271 144.518 143.129 143.905 142.882L134.354 139.629C134.258 139.085 134.642 138.448 134.822 137.924L135.331 136.415C135.476 135.997 135.644 135.547 136.023 135.32C136.402 135.094 137.002 135.404 137.317 135.656C137.633 135.908 137.872 136.239 138.182 136.496C138.77 136.985 139.546 137.168 140.293 137.336L142.438 137.817C143.215 138.03 144.017 138.137 144.823 138.135C145.421 136.308 146.558 134.699 147.202 132.887C147.4 132.332 147.55 131.76 147.756 131.205C148.214 129.953 148.936 128.815 149.651 127.687C150.01 127.122 150.399 126.529 151.002 126.234C151.38 126.057 151.807 126.015 152.213 126.113C152.619 126.212 152.979 126.446 153.235 126.776Z" fill="#2F2E41"/>
<path d="M151.655 119.512C151.621 119.217 151.53 118.932 151.386 118.672C151.311 118.542 151.196 118.44 151.059 118.379C150.922 118.319 150.769 118.304 150.623 118.336C150.175 118.476 150.025 119.169 149.557 119.192C149.241 119.207 149.015 118.886 148.916 118.586C148.817 118.285 148.763 117.942 148.527 117.731C148.362 117.607 148.173 117.521 147.972 117.476C146.886 117.133 145.764 116.499 145.403 115.417C145.318 115.198 145.298 114.958 145.345 114.727C145.51 114.043 146.362 113.837 147.011 113.59C147.659 113.343 148.283 112.92 148.918 112.6C149.554 112.279 150.292 112.052 150.991 112.215C151.346 112.327 151.695 112.457 152.037 112.605C153.09 112.971 154.379 112.801 155.196 113.562C155.553 113.939 155.814 114.396 155.959 114.895C156.529 116.478 156.89 118.357 155.946 119.746C155.364 120.604 154.799 121.584 153.68 121.688C152.378 121.798 151.861 120.617 151.655 119.512Z" fill="#2F2E41"/>
<g opacity="0.1">
<path d="M149.666 118.046C149.567 117.746 149.514 117.402 149.28 117.191C149.115 117.068 148.926 116.981 148.725 116.937C147.637 116.593 146.517 115.959 146.154 114.878C146.071 114.658 146.051 114.418 146.098 114.188C146.123 114.079 146.168 113.976 146.232 113.885C145.818 114.066 145.457 114.305 145.355 114.727C145.308 114.958 145.328 115.198 145.413 115.417C145.775 116.499 146.896 117.133 147.982 117.476C148.183 117.521 148.372 117.607 148.537 117.731C148.773 117.942 148.824 118.283 148.926 118.586C149.028 118.889 149.252 119.207 149.567 119.192C149.882 119.176 150.035 118.889 150.236 118.647C149.959 118.611 149.758 118.326 149.666 118.046Z" fill="black"/>
<path d="M154.428 121.141C153.12 121.261 152.604 120.07 152.393 118.973C152.365 118.679 152.278 118.393 152.139 118.133C152.063 118.003 151.949 117.901 151.812 117.84C151.675 117.78 151.522 117.765 151.375 117.797C151.143 117.91 150.948 118.086 150.813 118.306C150.93 118.317 151.043 118.355 151.142 118.417C151.242 118.479 151.326 118.563 151.388 118.662C151.532 118.922 151.624 119.207 151.658 119.502C151.864 120.599 152.38 121.793 153.693 121.671C154.211 121.613 154.69 121.365 155.036 120.973C154.844 121.063 154.638 121.12 154.428 121.141Z" fill="black"/>
</g>
<path d="M206.817 168.486C211.353 168.486 215.03 167.778 215.03 166.905C215.03 166.033 211.353 165.325 206.817 165.325C202.281 165.325 198.604 166.033 198.604 166.905C198.604 167.778 202.281 168.486 206.817 168.486Z" fill="#6C63FF"/>
<path d="M206.679 167.486C207.208 167.486 207.636 166.925 207.636 166.234C207.636 165.542 207.208 164.981 206.679 164.981C206.151 164.981 205.723 165.542 205.723 166.234C205.723 166.925 206.151 167.486 206.679 167.486Z" fill="#3F3D56"/>
<path d="M206.679 165.954C207.208 165.954 207.636 165.393 207.636 164.701C207.636 164.01 207.208 163.449 206.679 163.449C206.151 163.449 205.723 164.01 205.723 164.701C205.723 165.393 206.151 165.954 206.679 165.954Z" fill="#3F3D56"/>
<path d="M206.679 164.424C207.208 164.424 207.636 163.863 207.636 163.172C207.636 162.48 207.208 161.919 206.679 161.919C206.151 161.919 205.723 162.48 205.723 163.172C205.723 163.863 206.151 164.424 206.679 164.424Z" fill="#3F3D56"/>
<path d="M206.679 162.892C207.208 162.892 207.636 162.331 207.636 161.64C207.636 160.948 207.208 160.387 206.679 160.387C206.151 160.387 205.723 160.948 205.723 161.64C205.723 162.331 206.151 162.892 206.679 162.892Z" fill="#3F3D56"/>
<path d="M206.679 161.36C207.208 161.36 207.636 160.799 207.636 160.107C207.636 159.416 207.208 158.855 206.679 158.855C206.151 158.855 205.723 159.416 205.723 160.107C205.723 160.799 206.151 161.36 206.679 161.36Z" fill="#3F3D56"/>
<path d="M206.679 159.83C207.208 159.83 207.636 159.269 207.636 158.578C207.636 157.886 207.208 157.326 206.679 157.326C206.151 157.326 205.723 157.886 205.723 158.578C205.723 159.269 206.151 159.83 206.679 159.83Z" fill="#3F3D56"/>
<path d="M206.679 158.298C207.208 158.298 207.636 157.737 207.636 157.046C207.636 156.354 207.208 155.793 206.679 155.793C206.151 155.793 205.723 156.354 205.723 157.046C205.723 157.737 206.151 158.298 206.679 158.298Z" fill="#3F3D56"/>
<path d="M210.258 146.578C210.389 146.411 210.508 146.236 210.614 146.053L208.101 145.641L210.82 145.659C211.08 145.091 211.221 144.476 211.236 143.852C211.251 143.227 211.139 142.606 210.907 142.027L207.259 143.92L210.622 141.447C210.306 140.903 209.882 140.43 209.377 140.058C208.871 139.685 208.294 139.421 207.681 139.281C207.069 139.141 206.434 139.129 205.817 139.245C205.2 139.362 204.613 139.604 204.093 139.956C203.573 140.309 203.131 140.765 202.795 141.296C202.459 141.827 202.236 142.422 202.139 143.043C202.043 143.664 202.075 144.298 202.234 144.906C202.392 145.514 202.675 146.083 203.063 146.578C202.858 146.836 202.683 147.116 202.539 147.412L205.802 149.11L202.322 147.942C202.079 148.663 202.02 149.433 202.149 150.184C202.278 150.934 202.592 151.64 203.063 152.238C202.532 152.914 202.202 153.725 202.111 154.58C202.019 155.435 202.17 156.298 202.545 157.071C202.921 157.844 203.506 158.496 204.234 158.951C204.962 159.407 205.804 159.649 206.663 159.649C207.522 159.649 208.363 159.407 209.092 158.951C209.82 158.496 210.405 157.844 210.781 157.071C211.156 156.298 211.307 155.435 211.215 154.58C211.124 153.725 210.794 152.914 210.263 152.238C210.899 151.43 211.244 150.432 211.244 149.404C211.244 148.376 210.899 147.378 210.263 146.57L210.258 146.578Z" fill="#6C63FF"/>
<path opacity="0.1" d="M202.076 149.402C202.075 150.432 202.423 151.431 203.063 152.238C202.532 152.914 202.202 153.725 202.111 154.58C202.019 155.434 202.17 156.298 202.545 157.071C202.921 157.844 203.506 158.495 204.234 158.951C204.962 159.407 205.804 159.649 206.663 159.649C207.522 159.649 208.363 159.407 209.092 158.951C209.82 158.495 210.405 157.844 210.78 157.071C211.156 156.298 211.307 155.434 211.215 154.58C211.124 153.725 210.794 152.914 210.263 152.238C210.871 151.456 202.076 148.888 202.076 149.402Z" fill="black"/>
<path d="M37.751 200C44.2817 200 49.5759 198.981 49.5759 197.725C49.5759 196.468 44.2817 195.449 37.751 195.449C31.2203 195.449 25.9262 196.468 25.9262 197.725C25.9262 198.981 31.2203 200 37.751 200Z" fill="#6C63FF"/>
<path d="M37.5526 198.562C38.3126 198.562 38.9287 197.754 38.9287 196.757C38.9287 195.761 38.3126 194.953 37.5526 194.953C36.7927 194.953 36.1766 195.761 36.1766 196.757C36.1766 197.754 36.7927 198.562 37.5526 198.562Z" fill="#3F3D56"/>
<path d="M37.5526 196.358C38.3126 196.358 38.9287 195.55 38.9287 194.553C38.9287 193.557 38.3126 192.749 37.5526 192.749C36.7927 192.749 36.1766 193.557 36.1766 194.553C36.1766 195.55 36.7927 196.358 37.5526 196.358Z" fill="#3F3D56"/>
<path d="M37.5526 194.154C38.3126 194.154 38.9287 193.346 38.9287 192.349C38.9287 191.353 38.3126 190.545 37.5526 190.545C36.7927 190.545 36.1766 191.353 36.1766 192.349C36.1766 193.346 36.7927 194.154 37.5526 194.154Z" fill="#3F3D56"/>
<path d="M37.5526 191.95C38.3126 191.95 38.9287 191.142 38.9287 190.145C38.9287 189.149 38.3126 188.341 37.5526 188.341C36.7927 188.341 36.1766 189.149 36.1766 190.145C36.1766 191.142 36.7927 191.95 37.5526 191.95Z" fill="#3F3D56"/>
<path d="M37.5526 189.746C38.3126 189.746 38.9287 188.938 38.9287 187.941C38.9287 186.945 38.3126 186.137 37.5526 186.137C36.7927 186.137 36.1766 186.945 36.1766 187.941C36.1766 188.938 36.7927 189.746 37.5526 189.746Z" fill="#3F3D56"/>
<path d="M37.5526 187.539C38.3126 187.539 38.9287 186.731 38.9287 185.734C38.9287 184.738 38.3126 183.93 37.5526 183.93C36.7927 183.93 36.1766 184.738 36.1766 185.734C36.1766 186.731 36.7927 187.539 37.5526 187.539Z" fill="#3F3D56"/>
<path d="M37.5526 185.335C38.3126 185.335 38.9287 184.527 38.9287 183.53C38.9287 182.534 38.3126 181.726 37.5526 181.726C36.7927 181.726 36.1766 182.534 36.1766 183.53C36.1766 184.527 36.7927 185.335 37.5526 185.335Z" fill="#3F3D56"/>
<path d="M42.7058 168.448C42.8921 168.205 43.062 167.95 43.2145 167.684L39.5976 167.089L43.5096 167.119C43.8845 166.302 44.089 165.416 44.1104 164.517C44.1318 163.618 43.9698 162.723 43.6342 161.889L38.3895 164.622L43.2222 161.059C42.7696 160.274 42.1601 159.59 41.4316 159.05C40.7032 158.511 39.8714 158.127 38.9883 157.924C38.1051 157.72 37.1895 157.701 36.2986 157.867C35.4077 158.033 34.5606 158.382 33.8101 158.89C33.0597 159.398 32.422 160.056 31.9369 160.822C31.4518 161.588 31.1297 162.446 30.9907 163.342C30.8516 164.238 30.8986 165.153 31.1287 166.031C31.3589 166.908 31.7672 167.728 32.3282 168.44C32.0312 168.812 31.7753 169.215 31.5652 169.641L36.2631 172.085L31.2549 170.402C30.9039 171.445 30.8191 172.56 31.0084 173.644C31.1976 174.728 31.6548 175.748 32.3384 176.61C31.5731 177.583 31.0971 178.753 30.9646 179.984C30.8322 181.216 31.0487 182.46 31.5895 183.574C32.1302 184.688 32.9733 185.627 34.0225 186.284C35.0716 186.941 36.2844 187.29 37.5221 187.29C38.7599 187.29 39.9726 186.941 41.0218 186.284C42.0709 185.627 42.914 184.688 43.4548 183.574C43.9955 182.46 44.2121 181.216 44.0796 179.984C43.9472 178.753 43.4711 177.583 42.7058 176.61C43.6205 175.447 44.1178 174.01 44.1178 172.53C44.1178 171.05 43.6205 169.613 42.7058 168.45V168.448Z" fill="#6C63FF"/>
<path opacity="0.1" d="M30.9267 172.538C30.927 174.015 31.4242 175.45 32.3384 176.61C31.5731 177.584 31.0971 178.753 30.9646 179.984C30.8322 181.216 31.0487 182.46 31.5894 183.574C32.1302 184.688 32.9733 185.627 34.0225 186.284C35.0716 186.942 36.2844 187.29 37.5221 187.29C38.7599 187.29 39.9726 186.942 41.0218 186.284C42.0709 185.627 42.914 184.688 43.4548 183.574C43.9955 182.46 44.2121 181.216 44.0796 179.984C43.9472 178.753 43.4711 177.584 42.7058 176.61C43.5833 175.485 30.9267 171.787 30.9267 172.538Z" fill="black"/>
</g>
<defs>
<linearGradient id="paint0_linear_217_1591" x1="153.09" y1="195.046" x2="149.719" y2="111.534" gradientUnits="userSpaceOnUse">
<stop stop-color="#808080" stop-opacity="0.25"/>
<stop offset="0.54" stop-color="#808080" stop-opacity="0.12"/>
<stop offset="1" stop-color="#808080" stop-opacity="0.1"/>
</linearGradient>
<clipPath id="clip0_217_1591">
<rect width="260.127" height="200" fill="white"/>
</clipPath>
</defs>
</svg>
