<svg width="280" height="200" viewBox="0 0 280 200" fill="none" xmlns="http://www.w3.org/2000/svg">
<g clip-path="url(#clip0_217_1485)">
<path d="M204.833 0.115723H0.0873413V130.89H204.833V0.115723Z" fill="#E6E6E6"/>
<path d="M198.978 16.5178H5.94208V123.153H198.978V16.5178Z" fill="white"/>
<path d="M204.745 0H0V8.6748H204.745V0Z" fill="#6C63FF"/>
<path d="M6.46411 6.04331C7.35456 6.04331 8.07641 5.3234 8.07641 4.43535C8.07641 3.5473 7.35456 2.82739 6.46411 2.82739C5.57366 2.82739 4.85181 3.5473 4.85181 4.43535C4.85181 5.3234 5.57366 6.04331 6.46411 6.04331Z" fill="white"/>
<path d="M12.5834 6.04331C13.4738 6.04331 14.1957 5.3234 14.1957 4.43535C14.1957 3.5473 13.4738 2.82739 12.5834 2.82739C11.6929 2.82739 10.9711 3.5473 10.9711 4.43535C10.9711 5.3234 11.6929 6.04331 12.5834 6.04331Z" fill="white"/>
<path d="M18.7026 6.04331C19.5931 6.04331 20.3149 5.3234 20.3149 4.43535C20.3149 3.5473 19.5931 2.82739 18.7026 2.82739C17.8122 2.82739 17.0903 3.5473 17.0903 4.43535C17.0903 5.3234 17.8122 6.04331 18.7026 6.04331Z" fill="white"/>
<path d="M67.4477 25.2891H29.6928V66.1395H67.4477V25.2891Z" fill="#E6E6E6"/>
<path d="M121.337 25.2891H83.5822V66.1395H121.337V25.2891Z" fill="#E6E6E6"/>
<path d="M175.226 25.2891H137.471V66.1395H175.226V25.2891Z" fill="#E6E6E6"/>
<path d="M67.4477 73.5334H29.6928V114.384H67.4477V73.5334Z" fill="#E6E6E6"/>
<path d="M121.337 73.5334H83.5822V114.384H121.337V73.5334Z" fill="#E6E6E6"/>
<path d="M175.226 73.5334H137.471V114.384H175.226V73.5334Z" fill="#E6E6E6"/>
<path d="M92.7076 84.0322L99.6058 81.3123L100.408 94.9116C100.408 94.9116 101.852 99.0714 101.371 100.671C101.371 100.671 101.691 103.391 100.889 103.551C100.087 103.711 97.8404 104.031 97.6817 103.871C97.5229 103.711 97.5213 103.231 97.5213 103.231C97.5213 103.231 95.9169 104.351 95.7566 105.631C95.7566 105.631 89.0187 107.711 88.8583 105.791C88.6979 103.871 92.2271 102.271 92.2271 102.271L94.9544 98.1111L92.7076 84.0322Z" fill="white"/>
<path d="M107.307 84.0322L114.204 81.3123L115.006 94.9116C115.006 94.9116 116.45 99.0714 115.969 100.671C115.969 100.671 116.29 103.391 115.487 103.551C114.685 103.711 112.439 104.031 112.28 103.871C112.121 103.711 112.12 103.231 112.12 103.231C112.12 103.231 110.515 104.351 110.355 105.631C110.355 105.631 103.617 107.711 103.457 105.791C103.296 103.871 106.825 102.271 106.825 102.271L109.553 98.1111L107.307 84.0322Z" fill="white"/>
<path d="M107.981 31.5163C107.981 31.5163 106.512 35.6095 108.214 37.4553L106.795 42.3178C106.795 42.3178 111.836 57.4003 110.396 59.5071C110.396 59.5071 105.019 62.1884 94.2633 58.5494L98.6322 41.6473L98.0081 34.513L98.8722 31.1612L100.793 30.9712C100.793 30.9712 99.6404 35.2804 101.753 35.9509C103.865 36.6214 105.926 31.0789 105.926 31.0789L107.981 31.5163Z" fill="#3F3D56"/>
<path d="M40.1475 57.9387L42.0012 58.695L50.848 47.0991L53.6284 60.7115L55.482 60.3755C56.671 48.6396 57.6415 36.6694 56.4509 31.0079L49.5841 30.7136L46.4668 40.6303L44.9501 47.3525L40.1475 57.9387Z" fill="white"/>
<path d="M152.649 30.915C152.649 30.915 150.119 34.4223 150.243 35.8377C150.366 37.2531 151.97 60.3283 151.97 60.3283L155.734 60.5129L154.623 43.8987L155.548 39.4068L157.831 60.3283L162.459 60.4515L158.325 33.3151L157.523 30.9154L152.649 30.915Z" fill="white"/>
<path d="M166.947 87.4187C166.275 86.6148 165.12 86.1803 164.012 85.9453C164.043 85.8449 160.64 85.1434 160.582 85.2878L159.298 84.2683L155.355 86.3102L153.14 84.8058L152.11 85.17C152.152 84.9888 148.915 85.5482 148.915 85.5482C148.297 85.5703 147.507 85.609 146.623 85.6767C143.527 85.9143 143.289 93.9113 143.289 93.9113C144.713 93.3301 146.232 93.013 147.77 92.9754L148.607 102.54C152.911 102.172 157.425 102.6 162.104 103.649L164.298 96.1299L169.407 94.1482C169.407 94.1482 168.534 89.3186 166.947 87.4187Z" fill="#3F3D56"/>
<path d="M57.3026 82.864C56.7491 82.2018 55.798 81.8436 54.8843 81.6501C54.9117 81.5671 52.1059 80.9894 52.058 81.1085L51.0005 80.2686L47.752 81.9509L45.9263 80.7116L45.0784 81.0119C45.113 80.8627 42.4458 81.3232 42.4458 81.3232C41.9376 81.3416 41.2854 81.3732 40.5572 81.4293C38.0061 81.625 37.8099 88.2136 37.8099 88.2136C38.9836 87.7348 40.2351 87.4734 41.5029 87.4424L42.1923 106.735C45.7386 106.431 49.458 106.784 53.3121 107.648L55.1197 90.042L59.3297 88.4094C59.3297 88.4094 58.6107 84.4302 57.3026 82.864Z" fill="white"/>
<path d="M238.003 87.9994H256.104V78.3396C256.104 75.9456 255.151 73.6498 253.453 71.957C251.756 70.2642 249.454 69.3132 247.054 69.3132C244.653 69.3132 242.351 70.2642 240.654 71.957C238.956 73.6498 238.003 75.9456 238.003 78.3396V87.9994Z" fill="#2F2E41"/>
<path d="M229.922 195.474H226.029L224.177 180.496H229.923L229.922 195.474Z" fill="#FFB6B6"/>
<path d="M230.915 194.207H223.248C221.952 194.207 220.709 194.72 219.793 195.634C218.876 196.548 218.362 197.787 218.361 199.079V199.238H230.915V194.207Z" fill="#2F2E41"/>
<path d="M276.463 190.292L273.073 192.201L264.077 180.068L269.081 177.25L276.463 190.292Z" fill="#FFB6B6"/>
<path d="M276.703 188.702L270.026 192.46C268.898 193.095 268.069 194.152 267.721 195.397C267.374 196.642 267.536 197.974 268.174 199.099L268.252 199.237L279.184 193.082L276.703 188.702Z" fill="#2F2E41"/>
<path d="M251.581 128.119L251.881 129.617C251.881 129.617 252.782 130.515 252.332 130.965C251.881 131.414 252.031 133.512 252.031 133.512C252.283 137.336 257.294 158.829 258.19 163.026C258.19 163.026 265.101 167.521 270.509 176.36C275.917 185.199 276.066 187.446 276.066 187.446L270.058 189.994L255.037 171.866C255.037 171.866 250.831 169.319 249.329 167.071C247.826 164.824 238.511 141.602 238.511 141.602L233.252 165.873C233.252 165.873 233.552 174.712 232.2 180.405C231.369 183.998 230.866 187.659 230.698 191.342L223.638 190.593C223.638 190.593 224.088 169.319 224.84 167.071C224.84 167.071 221.685 141.153 227.994 130.815L233.079 117.295L238.059 115.384L251.581 128.119Z" fill="#2F2E41"/>
<path d="M247.147 71.6746C237.668 71.8361 237.67 85.8972 247.147 86.0572C256.625 85.8957 256.624 71.8345 247.147 71.6746Z" fill="#FFB8B8"/>
<path d="M239.852 78.4928H241.463L241.902 77.3989L241.682 78.4928H250.493L250.207 76.2039L252.349 78.4928H254.485V77.2525C254.486 76.2944 254.297 75.3454 253.93 74.4599C253.563 73.5744 253.025 72.7697 252.346 72.0917C251.667 71.4136 250.861 70.8756 249.974 70.5083C249.086 70.141 248.135 69.9516 247.174 69.9509C246.214 69.9503 245.262 70.1383 244.374 70.5044C243.486 70.8704 242.679 71.4073 242 72.0844C241.32 72.7614 240.78 73.5654 240.412 74.4504C240.044 75.3354 239.854 76.284 239.853 77.2422V77.2525L239.852 78.4928Z" fill="#2F2E41"/>
<path d="M237.373 90.2561L255.284 90.4008L251.5 128.697C251.5 128.697 230.553 127.594 230.54 121.218L232.502 115.552L237.373 90.2561Z" fill="#3F3D56"/>
<path d="M256.053 132.399C255.778 132.063 255.58 131.67 255.473 131.249C255.367 130.829 255.354 130.39 255.435 129.963C255.517 129.537 255.692 129.133 255.946 128.781C256.201 128.43 256.531 128.138 256.911 127.926L256.133 121.185L260.125 119.713L261.09 129.25C261.402 129.91 261.46 130.662 261.254 131.362C261.048 132.063 260.592 132.663 259.972 133.051C259.351 133.439 258.61 133.586 257.888 133.466C257.167 133.346 256.514 132.967 256.053 132.399Z" fill="#FFB6B6"/>
<path d="M252.929 93.7003L255.285 90.415C255.285 90.415 256.898 90.058 258.804 92.275C260.709 94.492 261.821 122.205 261.821 122.205L254.834 123.788L250.706 104.152L252.929 93.7003Z" fill="#3F3D56"/>
<path d="M213.45 123.752L213.969 148.373L229.951 156.796L259.056 151.612L259.771 126.02L241.32 119.541L213.45 123.752Z" fill="white"/>
<path d="M229.909 157.062L213.717 148.528L213.19 123.534L241.345 119.28L241.405 119.301L260.031 125.842L259.305 151.827L229.909 157.062ZM214.221 148.218L229.993 156.53L258.807 151.398L259.51 126.199L241.295 119.802L213.71 123.97L214.221 148.218Z" fill="#CACACA"/>
<path d="M229.595 130.428L229.532 130.403L213.356 123.989L213.544 123.516L229.658 129.905L259.736 125.768L259.806 126.272L229.595 130.428Z" fill="#CACACA"/>
<path d="M229.882 130.163L229.371 130.17L229.696 156.799L230.206 156.793L229.882 130.163Z" fill="#CACACA"/>
<path d="M227.55 129.153L221.719 126.796L249.791 122.335L255.622 124.692L227.55 129.153Z" fill="#CACACA"/>
<path d="M213.551 130.895L213.349 131.362L220.112 134.266L220.314 133.799L213.551 130.895Z" fill="#CACACA"/>
<path d="M216.613 139.294L216.411 139.761L223.174 142.665L223.376 142.198L216.613 139.294Z" fill="#6C63FF"/>
<path d="M124.53 157.958L125.05 182.578L141.032 191.001L170.136 185.818L170.851 160.225L152.401 153.746L124.53 157.958Z" fill="white"/>
<path d="M140.99 191.267L124.798 182.733L124.27 157.739L152.425 153.485L152.485 153.506L171.111 160.047L170.386 186.032L140.99 191.267ZM125.302 182.423L141.073 190.735L169.887 185.603L170.591 160.404L152.376 154.007L124.79 158.176L125.302 182.423Z" fill="#CACACA"/>
<path d="M140.675 164.633L140.612 164.608L124.436 158.194L124.624 157.721L140.738 164.11L170.816 159.973L170.886 160.477L140.675 164.633Z" fill="#CACACA"/>
<path d="M140.962 164.369L140.452 164.375L140.776 191.004L141.287 190.998L140.962 164.369Z" fill="#CACACA"/>
<path d="M137.218 162.779L132.799 161.001L160.871 156.54L165.289 158.318L137.218 162.779Z" fill="#CACACA"/>
<path d="M124.631 165.1L124.429 165.567L131.192 168.471L131.394 168.004L124.631 165.1Z" fill="#CACACA"/>
<path d="M127.694 173.499L127.492 173.967L134.255 176.871L134.457 176.403L127.694 173.499Z" fill="#6C63FF"/>
<path d="M152.295 161.333L152.898 189.914L171.45 199.691L205.236 193.674L206.066 163.966L184.648 156.444L152.295 161.333Z" fill="#6C63FF"/>
<path d="M171.402 200L152.606 190.094L151.993 161.08L184.677 156.141L184.746 156.166L206.368 163.759L205.526 193.923L171.402 200ZM153.191 189.734L171.498 199.383L204.947 193.426L205.764 164.173L184.619 156.748L152.596 161.586L153.191 189.734Z" fill="#3F3D56"/>
<path d="M171.036 169.083L170.964 169.054L152.185 161.608L152.404 161.059L171.11 168.476L206.025 163.673L206.106 164.258L171.036 169.083Z" fill="#3F3D56"/>
<path d="M171.369 168.776L170.777 168.783L171.154 199.695L171.746 199.688L171.369 168.776Z" fill="#3F3D56"/>
<path d="M167.324 166.944L161.894 164.866L194.48 159.688L199.911 161.765L167.324 166.944Z" fill="#3F3D56"/>
<path d="M152.412 169.624L152.178 170.167L160.028 173.538L160.263 172.995L152.412 169.624Z" fill="#3F3D56"/>
<path d="M155.967 179.374L155.733 179.917L163.584 183.288L163.818 182.745L155.967 179.374Z" fill="white"/>
<path d="M222.511 127.824C222.905 127.639 223.254 127.371 223.533 127.037C223.811 126.704 224.013 126.314 224.125 125.894C224.236 125.474 224.253 125.035 224.176 124.608C224.099 124.181 223.929 123.776 223.678 123.421L227.305 117.679L224.344 114.63L219.335 122.81C218.766 123.271 218.387 123.924 218.268 124.645C218.149 125.366 218.3 126.106 218.691 126.723C219.082 127.341 219.687 127.795 220.391 127.997C221.095 128.2 221.85 128.139 222.511 127.824V127.824Z" fill="#FFB6B6"/>
<path d="M240.125 91.7656L237.526 90.0579C237.526 90.0579 235.521 90.5063 233.388 94.5976C231.255 98.6889 222.654 116.98 222.654 116.98L226.19 120.559L235.622 106.209L240.125 91.7656Z" fill="#3F3D56"/>
</g>
<defs>
<clipPath id="clip0_217_1485">
<rect width="279.184" height="200" fill="white"/>
</clipPath>
</defs>
</svg>
